<svg width="170" height="195" viewBox="0 0 170 195" fill="none" xmlns="http://www.w3.org/2000/svg">
<rect width="170" height="194.854" rx="16" fill="white"/>
<path d="M121.504 79.2057H49.5065C48.68 79.2057 48.0104 78.5338 48.0104 77.7044V68.5599H122.989V77.7044C122.989 78.5338 122.32 79.2057 121.493 79.2057H121.504Z" fill="#A4A9AE"/>
<path d="M121.504 74.7017H49.5065C48.68 74.7017 48.0104 74.0298 48.0104 73.2004V64.056H122.989V73.2004C122.989 74.0298 122.32 74.7017 121.493 74.7017H121.504Z" fill="#E1E2E7"/>
<g opacity="0.2">
<path d="M49.0775 52.4233H121.933C122.519 52.4233 123 52.9063 123 53.4942V72.203C123 72.791 122.519 73.2739 121.933 73.2739H49.0775C48.4917 73.2739 48.0104 72.791 48.0104 72.203V53.4942C48.0104 52.8958 48.4917 52.4233 49.0775 52.4233Z" fill="black"/>
</g>
<path d="M49.0774 52.2029H121.933C122.519 52.2029 123 52.6858 123 53.2738V71.9931C123 72.581 122.519 73.064 121.933 73.064H49.0774C48.4915 73.064 48.0103 72.581 48.0103 71.9931V53.2738C48.0103 52.6858 48.4915 52.2029 49.0774 52.2029Z" fill="#D3D4D9"/>
<path d="M122.99 53.2738V63.4996C122.99 64.0875 122.299 64.5599 121.922 64.6544C104.242 69.0324 66.7474 69.0324 49.0671 64.6544C48.6905 64.5599 48 64.0875 48 63.4996V53.2738C48.0105 52.6858 48.4917 52.2029 49.0776 52.2029H121.922C122.508 52.2029 122.99 52.6858 122.99 53.2738Z" fill="#D3D4D9"/>
<g opacity="0.5">
<path d="M85.5051 67.5101C70.8169 67.5101 57.5724 66.3132 49.1821 64.2344C48.9205 64.1715 48.4393 63.825 48.4393 63.4995V53.2737C48.4393 52.9168 48.7218 52.6333 49.0775 52.6333H121.922C122.278 52.6333 122.561 52.9168 122.561 53.2737V63.4995C122.561 63.825 122.079 64.1715 121.818 64.2344C113.417 66.3132 100.183 67.5101 85.4947 67.5101H85.5051Z" fill="white"/>
</g>
<path d="M117.298 73.064H53.7016V74.1033H117.298V73.064Z" fill="#A4A9AE"/>
<path d="M117.518 79.2057H117.089V75.6571H53.9108V79.2057H53.4819V75.2267H117.518V79.2057Z" fill="#4A4349"/>
<path d="M121.535 76.0876H119.046C118.809 76.0876 118.617 76.2803 118.617 76.518V77.7254C118.617 77.9631 118.809 78.1558 119.046 78.1558H121.535C121.772 78.1558 121.964 77.9631 121.964 77.7254V76.518C121.964 76.2803 121.772 76.0876 121.535 76.0876Z" fill="#E1E2E7"/>
<g opacity="0.3">
<path d="M121.535 77.9458H119.046C118.805 77.9458 118.617 77.7569 118.617 77.5154V77.7254C118.617 77.9563 118.805 78.1558 119.046 78.1558H121.535C121.776 78.1558 121.964 77.9668 121.964 77.7254V77.5154C121.964 77.7569 121.776 77.9458 121.535 77.9458Z" fill="black"/>
</g>
<g opacity="0.5">
<path d="M121.535 76.0876H119.046C118.805 76.0876 118.617 76.2766 118.617 76.518V76.728C118.617 76.4865 118.805 76.2976 119.046 76.2976H121.535C121.776 76.2976 121.964 76.4865 121.964 76.728V76.518C121.964 76.2766 121.776 76.0876 121.535 76.0876Z" fill="white"/>
</g>
<path d="M17.7441 128L16.9062 125.621H13.6309L12.793 128H11.3105L14.498 119.398H16.0566L19.2383 128H17.7441ZM16.543 124.414L15.7285 122.07C15.6973 121.969 15.6523 121.826 15.5938 121.643C15.5352 121.455 15.4766 121.266 15.418 121.074C15.3594 120.879 15.3105 120.715 15.2715 120.582C15.2324 120.742 15.1836 120.922 15.125 121.121C15.0703 121.316 15.0156 121.5 14.9609 121.672C14.9102 121.844 14.8711 121.977 14.8438 122.07L14.0234 124.414H16.543ZM21.6055 121.514V128H20.2285V121.514H21.6055ZM20.9258 119.029C21.1367 119.029 21.3184 119.086 21.4707 119.199C21.627 119.312 21.7051 119.508 21.7051 119.785C21.7051 120.059 21.627 120.254 21.4707 120.371C21.3184 120.484 21.1367 120.541 20.9258 120.541C20.707 120.541 20.5215 120.484 20.3691 120.371C20.2207 120.254 20.1465 120.059 20.1465 119.785C20.1465 119.508 20.2207 119.312 20.3691 119.199C20.5215 119.086 20.707 119.029 20.9258 119.029ZM26.8672 121.391C26.9766 121.391 27.0957 121.396 27.2246 121.408C27.3535 121.42 27.4648 121.436 27.5586 121.455L27.4297 122.744C27.3477 122.721 27.2461 122.703 27.125 122.691C27.0078 122.68 26.9023 122.674 26.8086 122.674C26.5625 122.674 26.3281 122.715 26.1055 122.797C25.8828 122.875 25.6855 122.996 25.5137 123.16C25.3418 123.32 25.207 123.521 25.1094 123.764C25.0117 124.006 24.9629 124.287 24.9629 124.607V128H23.5801V121.514H24.6582L24.8457 122.656H24.9102C25.0391 122.426 25.1992 122.215 25.3906 122.023C25.582 121.832 25.8008 121.68 26.0469 121.566C26.2969 121.449 26.5703 121.391 26.8672 121.391ZM34.4902 128.117C33.877 128.117 33.3457 127.998 32.8965 127.76C32.4473 127.521 32.1016 127.156 31.8594 126.664C31.6172 126.172 31.4961 125.547 31.4961 124.789C31.4961 124 31.6289 123.355 31.8945 122.855C32.1602 122.355 32.5273 121.986 32.9961 121.748C33.4688 121.51 34.0098 121.391 34.6191 121.391C35.0059 121.391 35.3555 121.43 35.668 121.508C35.9844 121.582 36.252 121.674 36.4707 121.783L36.0605 122.885C35.8223 122.787 35.5781 122.705 35.3281 122.639C35.0781 122.572 34.8379 122.539 34.6074 122.539C34.2285 122.539 33.9121 122.623 33.6582 122.791C33.4082 122.959 33.2207 123.209 33.0957 123.541C32.9746 123.873 32.9141 124.285 32.9141 124.777C32.9141 125.254 32.9766 125.656 33.1016 125.984C33.2266 126.309 33.4121 126.555 33.6582 126.723C33.9043 126.887 34.207 126.969 34.5664 126.969C34.9219 126.969 35.2402 126.926 35.5215 126.84C35.8027 126.754 36.0684 126.643 36.3184 126.506V127.701C36.0723 127.842 35.8086 127.945 35.5273 128.012C35.2461 128.082 34.9004 128.117 34.4902 128.117ZM43.584 124.742C43.584 125.281 43.5137 125.76 43.373 126.178C43.2324 126.596 43.0273 126.949 42.7578 127.238C42.4883 127.523 42.1641 127.742 41.7852 127.895C41.4062 128.043 40.9785 128.117 40.502 128.117C40.0566 128.117 39.6484 128.043 39.2773 127.895C38.9062 127.742 38.584 127.523 38.3105 127.238C38.041 126.949 37.832 126.596 37.6836 126.178C37.5352 125.76 37.4609 125.281 37.4609 124.742C37.4609 124.027 37.584 123.422 37.8301 122.926C38.0801 122.426 38.4355 122.045 38.8965 121.783C39.3574 121.521 39.9062 121.391 40.543 121.391C41.1406 121.391 41.668 121.521 42.125 121.783C42.582 122.045 42.9395 122.426 43.1973 122.926C43.4551 123.426 43.584 124.031 43.584 124.742ZM38.8789 124.742C38.8789 125.215 38.9355 125.619 39.0488 125.955C39.166 126.291 39.3457 126.549 39.5879 126.729C39.8301 126.904 40.1426 126.992 40.5254 126.992C40.9082 126.992 41.2207 126.904 41.4629 126.729C41.7051 126.549 41.8828 126.291 41.9961 125.955C42.1094 125.619 42.166 125.215 42.166 124.742C42.166 124.27 42.1094 123.869 41.9961 123.541C41.8828 123.209 41.7051 122.957 41.4629 122.785C41.2207 122.609 40.9062 122.521 40.5195 122.521C39.9492 122.521 39.5332 122.713 39.2715 123.096C39.0098 123.479 38.8789 124.027 38.8789 124.742ZM48.5469 121.391C49.2773 121.391 49.8457 121.58 50.252 121.959C50.6621 122.334 50.8672 122.938 50.8672 123.77V128H49.4902V124.027C49.4902 123.523 49.3867 123.146 49.1797 122.896C48.9727 122.643 48.6523 122.516 48.2188 122.516C47.5898 122.516 47.1523 122.709 46.9062 123.096C46.6641 123.482 46.543 124.043 46.543 124.777V128H45.166V121.514H46.2383L46.4316 122.393H46.5078C46.6484 122.166 46.8223 121.98 47.0293 121.836C47.2402 121.688 47.4746 121.576 47.7324 121.502C47.9941 121.428 48.2656 121.391 48.5469 121.391ZM54.9746 128.117C54.2012 128.117 53.5801 127.836 53.1113 127.273C52.6465 126.707 52.4141 125.873 52.4141 124.771C52.4141 123.658 52.6504 122.816 53.123 122.246C53.5996 121.676 54.2266 121.391 55.0039 121.391C55.332 121.391 55.6191 121.436 55.8652 121.525C56.1113 121.611 56.3223 121.729 56.498 121.877C56.6777 122.025 56.8301 122.191 56.9551 122.375H57.0195C57 122.254 56.9766 122.08 56.9492 121.854C56.9258 121.623 56.9141 121.41 56.9141 121.215V118.883H58.2969V128H57.2188L56.9727 127.115H56.9141C56.7969 127.303 56.6484 127.473 56.4688 127.625C56.293 127.773 56.082 127.893 55.8359 127.982C55.5938 128.072 55.3066 128.117 54.9746 128.117ZM55.3613 126.998C55.9512 126.998 56.3672 126.828 56.6094 126.488C56.8516 126.148 56.9766 125.639 56.9844 124.959V124.777C56.9844 124.051 56.8672 123.494 56.6328 123.107C56.3984 122.717 55.9707 122.521 55.3496 122.521C54.8535 122.521 54.4746 122.723 54.2129 123.125C53.9551 123.523 53.8262 124.08 53.8262 124.795C53.8262 125.51 53.9551 126.057 54.2129 126.436C54.4746 126.811 54.8574 126.998 55.3613 126.998ZM61.6484 121.514V128H60.2715V121.514H61.6484ZM60.9688 119.029C61.1797 119.029 61.3613 119.086 61.5137 119.199C61.6699 119.312 61.748 119.508 61.748 119.785C61.748 120.059 61.6699 120.254 61.5137 120.371C61.3613 120.484 61.1797 120.541 60.9688 120.541C60.75 120.541 60.5645 120.484 60.4121 120.371C60.2637 120.254 60.1895 120.059 60.1895 119.785C60.1895 119.508 60.2637 119.312 60.4121 119.199C60.5645 119.086 60.75 119.029 60.9688 119.029ZM66.0371 127.004C66.2168 127.004 66.3945 126.988 66.5703 126.957C66.7461 126.922 66.9062 126.881 67.0508 126.834V127.877C66.8984 127.943 66.7012 128 66.459 128.047C66.2168 128.094 65.9648 128.117 65.7031 128.117C65.3359 128.117 65.0059 128.057 64.7129 127.936C64.4199 127.811 64.1875 127.598 64.0156 127.297C63.8438 126.996 63.7578 126.58 63.7578 126.049V122.562H62.873V121.947L63.8223 121.461L64.2734 120.072H65.1406V121.514H66.998V122.562H65.1406V126.031C65.1406 126.359 65.2227 126.604 65.3867 126.764C65.5508 126.924 65.7676 127.004 66.0371 127.004ZM69.7461 121.514V128H68.3691V121.514H69.7461ZM69.0664 119.029C69.2773 119.029 69.459 119.086 69.6113 119.199C69.7676 119.312 69.8457 119.508 69.8457 119.785C69.8457 120.059 69.7676 120.254 69.6113 120.371C69.459 120.484 69.2773 120.541 69.0664 120.541C68.8477 120.541 68.6621 120.484 68.5098 120.371C68.3613 120.254 68.2871 120.059 68.2871 119.785C68.2871 119.508 68.3613 119.312 68.5098 119.199C68.6621 119.086 68.8477 119.029 69.0664 119.029ZM77.4629 124.742C77.4629 125.281 77.3926 125.76 77.252 126.178C77.1113 126.596 76.9062 126.949 76.6367 127.238C76.3672 127.523 76.043 127.742 75.6641 127.895C75.2852 128.043 74.8574 128.117 74.3809 128.117C73.9355 128.117 73.5273 128.043 73.1562 127.895C72.7852 127.742 72.4629 127.523 72.1895 127.238C71.9199 126.949 71.7109 126.596 71.5625 126.178C71.4141 125.76 71.3398 125.281 71.3398 124.742C71.3398 124.027 71.4629 123.422 71.709 122.926C71.959 122.426 72.3145 122.045 72.7754 121.783C73.2363 121.521 73.7852 121.391 74.4219 121.391C75.0195 121.391 75.5469 121.521 76.0039 121.783C76.4609 122.045 76.8184 122.426 77.0762 122.926C77.334 123.426 77.4629 124.031 77.4629 124.742ZM72.7578 124.742C72.7578 125.215 72.8145 125.619 72.9277 125.955C73.0449 126.291 73.2246 126.549 73.4668 126.729C73.709 126.904 74.0215 126.992 74.4043 126.992C74.7871 126.992 75.0996 126.904 75.3418 126.729C75.584 126.549 75.7617 126.291 75.875 125.955C75.9883 125.619 76.0449 125.215 76.0449 124.742C76.0449 124.27 75.9883 123.869 75.875 123.541C75.7617 123.209 75.584 122.957 75.3418 122.785C75.0996 122.609 74.7852 122.521 74.3984 122.521C73.8281 122.521 73.4121 122.713 73.1504 123.096C72.8887 123.479 72.7578 124.027 72.7578 124.742ZM82.4258 121.391C83.1562 121.391 83.7246 121.58 84.1309 121.959C84.541 122.334 84.7461 122.938 84.7461 123.77V128H83.3691V124.027C83.3691 123.523 83.2656 123.146 83.0586 122.896C82.8516 122.643 82.5312 122.516 82.0977 122.516C81.4688 122.516 81.0312 122.709 80.7852 123.096C80.543 123.482 80.4219 124.043 80.4219 124.777V128H79.0449V121.514H80.1172L80.3105 122.393H80.3867C80.5273 122.166 80.7012 121.98 80.9082 121.836C81.1191 121.688 81.3535 121.576 81.6113 121.502C81.873 121.428 82.1445 121.391 82.4258 121.391Z" fill="#254BEC"/>
<path d="M17.5605 156L16.7227 153.621H13.4473L12.6094 156H11.127L14.3145 147.398H15.873L19.0547 156H17.5605ZM16.3594 152.414L15.5449 150.07C15.5137 149.969 15.4688 149.826 15.4102 149.643C15.3516 149.455 15.293 149.266 15.2344 149.074C15.1758 148.879 15.127 148.715 15.0879 148.582C15.0488 148.742 15 148.922 14.9414 149.121C14.8867 149.316 14.832 149.5 14.7773 149.672C14.7266 149.844 14.6875 149.977 14.6602 150.07L13.8398 152.414H16.3594ZM23.3027 147.434H25.8516C26.957 147.434 27.791 147.594 28.3535 147.914C28.916 148.234 29.1973 148.787 29.1973 149.572C29.1973 149.9 29.1387 150.197 29.0215 150.463C28.9082 150.725 28.7422 150.941 28.5234 151.113C28.3047 151.281 28.0352 151.395 27.7148 151.453V151.512C28.0469 151.57 28.3418 151.674 28.5996 151.822C28.8613 151.971 29.0664 152.184 29.2148 152.461C29.3672 152.738 29.4434 153.098 29.4434 153.539C29.4434 154.062 29.3184 154.508 29.0684 154.875C28.8223 155.242 28.4688 155.521 28.0078 155.713C27.5508 155.904 27.0078 156 26.3789 156H23.3027V147.434ZM24.709 150.967H26.0566C26.6934 150.967 27.1348 150.863 27.3809 150.656C27.627 150.449 27.75 150.146 27.75 149.748C27.75 149.342 27.6035 149.049 27.3105 148.869C27.0215 148.689 26.5605 148.6 25.9277 148.6H24.709V150.967ZM24.709 152.104V154.822H26.1914C26.8477 154.822 27.3086 154.695 27.5742 154.441C27.8398 154.188 27.9727 153.844 27.9727 153.41C27.9727 153.145 27.9121 152.914 27.791 152.719C27.6738 152.523 27.4805 152.373 27.2109 152.268C26.9414 152.158 26.5781 152.104 26.1211 152.104H24.709ZM33.6562 149.391C34.2344 149.391 34.7305 149.51 35.1445 149.748C35.5586 149.986 35.877 150.324 36.0996 150.762C36.3223 151.199 36.4336 151.723 36.4336 152.332V153.07H32.1035C32.1191 153.699 32.2871 154.184 32.6074 154.523C32.9316 154.863 33.3848 155.033 33.9668 155.033C34.3809 155.033 34.752 154.994 35.0801 154.916C35.4121 154.834 35.7539 154.715 36.1055 154.559V155.678C35.7812 155.83 35.4512 155.941 35.1152 156.012C34.7793 156.082 34.377 156.117 33.9082 156.117C33.2715 156.117 32.7109 155.994 32.2266 155.748C31.7461 155.498 31.3691 155.127 31.0957 154.635C30.8262 154.143 30.6914 153.531 30.6914 152.801C30.6914 152.074 30.8145 151.457 31.0605 150.949C31.3066 150.441 31.6523 150.055 32.0977 149.789C32.543 149.523 33.0625 149.391 33.6562 149.391ZM33.6562 150.428C33.2227 150.428 32.8711 150.568 32.6016 150.85C32.3359 151.131 32.1797 151.543 32.1328 152.086H35.0859C35.082 151.762 35.0273 151.475 34.9219 151.225C34.8203 150.975 34.6641 150.779 34.4531 150.639C34.2461 150.498 33.9805 150.428 33.6562 150.428ZM40.166 156.117C39.3926 156.117 38.7715 155.836 38.3027 155.273C37.8379 154.707 37.6055 153.873 37.6055 152.771C37.6055 151.658 37.8418 150.816 38.3145 150.246C38.791 149.676 39.418 149.391 40.1953 149.391C40.5234 149.391 40.8105 149.436 41.0566 149.525C41.3027 149.611 41.5137 149.729 41.6895 149.877C41.8691 150.025 42.0215 150.191 42.1465 150.375H42.2109C42.1914 150.254 42.168 150.08 42.1406 149.854C42.1172 149.623 42.1055 149.41 42.1055 149.215V146.883H43.4883V156H42.4102L42.1641 155.115H42.1055C41.9883 155.303 41.8398 155.473 41.6602 155.625C41.4844 155.773 41.2734 155.893 41.0273 155.982C40.7852 156.072 40.498 156.117 40.166 156.117ZM40.5527 154.998C41.1426 154.998 41.5586 154.828 41.8008 154.488C42.043 154.148 42.168 153.639 42.1758 152.959V152.777C42.1758 152.051 42.0586 151.494 41.8242 151.107C41.5898 150.717 41.1621 150.521 40.541 150.521C40.0449 150.521 39.666 150.723 39.4043 151.125C39.1465 151.523 39.0176 152.08 39.0176 152.795C39.0176 153.51 39.1465 154.057 39.4043 154.436C39.666 154.811 40.0488 154.998 40.5527 154.998ZM51.8672 149.391C51.9766 149.391 52.0957 149.396 52.2246 149.408C52.3535 149.42 52.4648 149.436 52.5586 149.455L52.4297 150.744C52.3477 150.721 52.2461 150.703 52.125 150.691C52.0078 150.68 51.9023 150.674 51.8086 150.674C51.5625 150.674 51.3281 150.715 51.1055 150.797C50.8828 150.875 50.6855 150.996 50.5137 151.16C50.3418 151.32 50.207 151.521 50.1094 151.764C50.0117 152.006 49.9629 152.287 49.9629 152.607V156H48.5801V149.514H49.6582L49.8457 150.656H49.9102C50.0391 150.426 50.1992 150.215 50.3906 150.023C50.582 149.832 50.8008 149.68 51.0469 149.566C51.2969 149.449 51.5703 149.391 51.8672 149.391ZM59.502 152.742C59.502 153.281 59.4316 153.76 59.291 154.178C59.1504 154.596 58.9453 154.949 58.6758 155.238C58.4062 155.523 58.082 155.742 57.7031 155.895C57.3242 156.043 56.8965 156.117 56.4199 156.117C55.9746 156.117 55.5664 156.043 55.1953 155.895C54.8242 155.742 54.502 155.523 54.2285 155.238C53.959 154.949 53.75 154.596 53.6016 154.178C53.4531 153.76 53.3789 153.281 53.3789 152.742C53.3789 152.027 53.502 151.422 53.748 150.926C53.998 150.426 54.3535 150.045 54.8145 149.783C55.2754 149.521 55.8242 149.391 56.4609 149.391C57.0586 149.391 57.5859 149.521 58.043 149.783C58.5 150.045 58.8574 150.426 59.1152 150.926C59.373 151.426 59.502 152.031 59.502 152.742ZM54.7969 152.742C54.7969 153.215 54.8535 153.619 54.9668 153.955C55.084 154.291 55.2637 154.549 55.5059 154.729C55.748 154.904 56.0605 154.992 56.4434 154.992C56.8262 154.992 57.1387 154.904 57.3809 154.729C57.623 154.549 57.8008 154.291 57.9141 153.955C58.0273 153.619 58.084 153.215 58.084 152.742C58.084 152.27 58.0273 151.869 57.9141 151.541C57.8008 151.209 57.623 150.957 57.3809 150.785C57.1387 150.609 56.8242 150.521 56.4375 150.521C55.8672 150.521 55.4512 150.713 55.1895 151.096C54.9277 151.479 54.7969 152.027 54.7969 152.742ZM66.8262 152.742C66.8262 153.281 66.7559 153.76 66.6152 154.178C66.4746 154.596 66.2695 154.949 66 155.238C65.7305 155.523 65.4062 155.742 65.0273 155.895C64.6484 156.043 64.2207 156.117 63.7441 156.117C63.2988 156.117 62.8906 156.043 62.5195 155.895C62.1484 155.742 61.8262 155.523 61.5527 155.238C61.2832 154.949 61.0742 154.596 60.9258 154.178C60.7773 153.76 60.7031 153.281 60.7031 152.742C60.7031 152.027 60.8262 151.422 61.0723 150.926C61.3223 150.426 61.6777 150.045 62.1387 149.783C62.5996 149.521 63.1484 149.391 63.7852 149.391C64.3828 149.391 64.9102 149.521 65.3672 149.783C65.8242 150.045 66.1816 150.426 66.4395 150.926C66.6973 151.426 66.8262 152.031 66.8262 152.742ZM62.1211 152.742C62.1211 153.215 62.1777 153.619 62.291 153.955C62.4082 154.291 62.5879 154.549 62.8301 154.729C63.0723 154.904 63.3848 154.992 63.7676 154.992C64.1504 154.992 64.4629 154.904 64.7051 154.729C64.9473 154.549 65.125 154.291 65.2383 153.955C65.3516 153.619 65.4082 153.215 65.4082 152.742C65.4082 152.27 65.3516 151.869 65.2383 151.541C65.125 151.209 64.9473 150.957 64.7051 150.785C64.4629 150.609 64.1484 150.521 63.7617 150.521C63.1914 150.521 62.7754 150.713 62.5137 151.096C62.252 151.479 62.1211 152.027 62.1211 152.742ZM75.7383 149.391C76.4648 149.391 77.0117 149.578 77.3789 149.953C77.75 150.328 77.9355 150.93 77.9355 151.758V156H76.5586V152.004C76.5586 151.512 76.4629 151.141 76.2715 150.891C76.0801 150.641 75.7891 150.516 75.3984 150.516C74.8516 150.516 74.457 150.691 74.2148 151.043C73.9766 151.391 73.8574 151.896 73.8574 152.561V156H72.4805V152.004C72.4805 151.676 72.4375 151.402 72.3516 151.184C72.2695 150.961 72.1426 150.795 71.9707 150.686C71.7988 150.572 71.582 150.516 71.3203 150.516C70.9414 150.516 70.6387 150.602 70.4121 150.773C70.1895 150.945 70.0293 151.199 69.9316 151.535C69.834 151.867 69.7852 152.275 69.7852 152.76V156H68.4082V149.514H69.4805L69.6738 150.387H69.75C69.8828 150.16 70.0469 149.975 70.2422 149.83C70.4414 149.682 70.6621 149.572 70.9043 149.502C71.1465 149.428 71.3984 149.391 71.6602 149.391C72.1445 149.391 72.5527 149.477 72.8848 149.648C73.2168 149.816 73.4648 150.074 73.6289 150.422H73.7344C73.9375 150.07 74.2207 149.811 74.584 149.643C74.9473 149.475 75.332 149.391 75.7383 149.391Z" fill="#424242"/>
</svg>
