<svg width="170" height="195" viewBox="0 0 170 195" fill="none" xmlns="http://www.w3.org/2000/svg">
<rect width="170" height="194.854" rx="16" fill="white"/>
<path d="M13.5254 128H12.1309V119.434H16.9707V120.617H13.5254V123.289H16.748V124.467H13.5254V128ZM20.9316 121.391C21.752 121.391 22.3711 121.572 22.7891 121.936C23.2109 122.299 23.4219 122.865 23.4219 123.635V128H22.4434L22.1797 127.08H22.1328C21.9492 127.314 21.7598 127.508 21.5645 127.66C21.3691 127.812 21.1426 127.926 20.8848 128C20.6309 128.078 20.3203 128.117 19.9531 128.117C19.5664 128.117 19.2207 128.047 18.916 127.906C18.6113 127.762 18.3711 127.543 18.1953 127.25C18.0195 126.957 17.9316 126.586 17.9316 126.137C17.9316 125.469 18.1797 124.967 18.6758 124.631C19.1758 124.295 19.9297 124.109 20.9375 124.074L22.0625 124.033V123.693C22.0625 123.244 21.957 122.924 21.7461 122.732C21.5391 122.541 21.2461 122.445 20.8672 122.445C20.543 122.445 20.2285 122.492 19.9238 122.586C19.6191 122.68 19.3223 122.795 19.0332 122.932L18.5879 121.959C18.9043 121.791 19.2637 121.654 19.666 121.549C20.0723 121.443 20.4941 121.391 20.9316 121.391ZM22.0566 124.9L21.2188 124.93C20.5312 124.953 20.0488 125.07 19.7715 125.281C19.4941 125.492 19.3555 125.781 19.3555 126.148C19.3555 126.469 19.4512 126.703 19.6426 126.852C19.834 126.996 20.0859 127.068 20.3984 127.068C20.875 127.068 21.2695 126.934 21.582 126.664C21.8984 126.391 22.0566 125.99 22.0566 125.463V124.9ZM28.7305 121.391C29.4609 121.391 30.0293 121.58 30.4355 121.959C30.8457 122.334 31.0508 122.938 31.0508 123.77V128H29.6738V124.027C29.6738 123.523 29.5703 123.146 29.3633 122.896C29.1562 122.643 28.8359 122.516 28.4023 122.516C27.7734 122.516 27.3359 122.709 27.0898 123.096C26.8477 123.482 26.7266 124.043 26.7266 124.777V128H25.3496V121.514H26.4219L26.6152 122.393H26.6914C26.832 122.166 27.0059 121.98 27.2129 121.836C27.4238 121.688 27.6582 121.576 27.916 121.502C28.1777 121.428 28.4492 121.391 28.7305 121.391Z" fill="#254BEC"/>
<path d="M15.6562 156H14.2734V150.486C14.2734 150.303 14.2754 150.119 14.2793 149.936C14.2832 149.752 14.2871 149.572 14.291 149.396C14.2988 149.221 14.3086 149.053 14.3203 148.893C14.2383 148.982 14.1367 149.08 14.0156 149.186C13.8984 149.291 13.7734 149.4 13.6406 149.514L12.6562 150.299L11.9648 149.426L14.5078 147.434H15.6562V156ZM24.2168 156.117C23.4434 156.117 22.8223 155.836 22.3535 155.273C21.8887 154.707 21.6562 153.873 21.6562 152.771C21.6562 151.658 21.8926 150.816 22.3652 150.246C22.8418 149.676 23.4688 149.391 24.2461 149.391C24.5742 149.391 24.8613 149.436 25.1074 149.525C25.3535 149.611 25.5645 149.729 25.7402 149.877C25.9199 150.025 26.0723 150.191 26.1973 150.375H26.2617C26.2422 150.254 26.2188 150.08 26.1914 149.854C26.168 149.623 26.1562 149.41 26.1562 149.215V146.883H27.5391V156H26.4609L26.2148 155.115H26.1562C26.0391 155.303 25.8906 155.473 25.7109 155.625C25.5352 155.773 25.3242 155.893 25.0781 155.982C24.8359 156.072 24.5488 156.117 24.2168 156.117ZM24.6035 154.998C25.1934 154.998 25.6094 154.828 25.8516 154.488C26.0938 154.148 26.2188 153.639 26.2266 152.959V152.777C26.2266 152.051 26.1094 151.494 25.875 151.107C25.6406 150.717 25.2129 150.521 24.5918 150.521C24.0957 150.521 23.7168 150.723 23.4551 151.125C23.1973 151.523 23.0684 152.08 23.0684 152.795C23.0684 153.51 23.1973 154.057 23.4551 154.436C23.7168 154.811 24.0996 154.998 24.6035 154.998ZM32.0977 149.391C32.6758 149.391 33.1719 149.51 33.5859 149.748C34 149.986 34.3184 150.324 34.541 150.762C34.7637 151.199 34.875 151.723 34.875 152.332V153.07H30.5449C30.5605 153.699 30.7285 154.184 31.0488 154.523C31.373 154.863 31.8262 155.033 32.4082 155.033C32.8223 155.033 33.1934 154.994 33.5215 154.916C33.8535 154.834 34.1953 154.715 34.5469 154.559V155.678C34.2227 155.83 33.8926 155.941 33.5566 156.012C33.2207 156.082 32.8184 156.117 32.3496 156.117C31.7129 156.117 31.1523 155.994 30.668 155.748C30.1875 155.498 29.8105 155.127 29.5371 154.635C29.2676 154.143 29.1328 153.531 29.1328 152.801C29.1328 152.074 29.2559 151.457 29.502 150.949C29.748 150.441 30.0938 150.055 30.5391 149.789C30.9844 149.523 31.5039 149.391 32.0977 149.391ZM32.0977 150.428C31.6641 150.428 31.3125 150.568 31.043 150.85C30.7773 151.131 30.6211 151.543 30.5742 152.086H33.5273C33.5234 151.762 33.4688 151.475 33.3633 151.225C33.2617 150.975 33.1055 150.779 32.8945 150.639C32.6875 150.498 32.4219 150.428 32.0977 150.428ZM37.9102 156L35.4434 149.514H36.9023L38.2383 153.322C38.3242 153.564 38.4023 153.826 38.4727 154.107C38.543 154.389 38.5918 154.625 38.6191 154.816H38.666C38.6934 154.617 38.7461 154.379 38.8242 154.102C38.9023 153.82 38.9824 153.561 39.0645 153.322L40.4004 149.514H41.8535L39.3867 156H37.9102ZM44.2148 149.514V156H42.8379V149.514H44.2148ZM43.5352 147.029C43.7461 147.029 43.9277 147.086 44.0801 147.199C44.2363 147.312 44.3145 147.508 44.3145 147.785C44.3145 148.059 44.2363 148.254 44.0801 148.371C43.9277 148.484 43.7461 148.541 43.5352 148.541C43.3164 148.541 43.1309 148.484 42.9785 148.371C42.8301 148.254 42.7559 148.059 42.7559 147.785C42.7559 147.508 42.8301 147.312 42.9785 147.199C43.1309 147.086 43.3164 147.029 43.5352 147.029ZM48.8027 156.117C48.1895 156.117 47.6582 155.998 47.209 155.76C46.7598 155.521 46.4141 155.156 46.1719 154.664C45.9297 154.172 45.8086 153.547 45.8086 152.789C45.8086 152 45.9414 151.355 46.207 150.855C46.4727 150.355 46.8398 149.986 47.3086 149.748C47.7812 149.51 48.3223 149.391 48.9316 149.391C49.3184 149.391 49.668 149.43 49.9805 149.508C50.2969 149.582 50.5645 149.674 50.7832 149.783L50.373 150.885C50.1348 150.787 49.8906 150.705 49.6406 150.639C49.3906 150.572 49.1504 150.539 48.9199 150.539C48.541 150.539 48.2246 150.623 47.9707 150.791C47.7207 150.959 47.5332 151.209 47.4082 151.541C47.2871 151.873 47.2266 152.285 47.2266 152.777C47.2266 153.254 47.2891 153.656 47.4141 153.984C47.5391 154.309 47.7246 154.555 47.9707 154.723C48.2168 154.887 48.5195 154.969 48.8789 154.969C49.2344 154.969 49.5527 154.926 49.834 154.84C50.1152 154.754 50.3809 154.643 50.6309 154.506V155.701C50.3848 155.842 50.1211 155.945 49.8398 156.012C49.5586 156.082 49.2129 156.117 48.8027 156.117ZM54.7383 149.391C55.3164 149.391 55.8125 149.51 56.2266 149.748C56.6406 149.986 56.959 150.324 57.1816 150.762C57.4043 151.199 57.5156 151.723 57.5156 152.332V153.07H53.1855C53.2012 153.699 53.3691 154.184 53.6895 154.523C54.0137 154.863 54.4668 155.033 55.0488 155.033C55.4629 155.033 55.834 154.994 56.1621 154.916C56.4941 154.834 56.8359 154.715 57.1875 154.559V155.678C56.8633 155.83 56.5332 155.941 56.1973 156.012C55.8613 156.082 55.459 156.117 54.9902 156.117C54.3535 156.117 53.793 155.994 53.3086 155.748C52.8281 155.498 52.4512 155.127 52.1777 154.635C51.9082 154.143 51.7734 153.531 51.7734 152.801C51.7734 152.074 51.8965 151.457 52.1426 150.949C52.3887 150.441 52.7344 150.055 53.1797 149.789C53.625 149.523 54.1445 149.391 54.7383 149.391ZM54.7383 150.428C54.3047 150.428 53.9531 150.568 53.6836 150.85C53.418 151.131 53.2617 151.543 53.2148 152.086H56.168C56.1641 151.762 56.1094 151.475 56.0039 151.225C55.9023 150.975 55.7461 150.779 55.5352 150.639C55.3281 150.498 55.0625 150.428 54.7383 150.428ZM63.4277 154.148C63.4277 154.574 63.3242 154.934 63.1172 155.227C62.9102 155.52 62.6074 155.742 62.209 155.895C61.8145 156.043 61.3301 156.117 60.7559 156.117C60.3027 156.117 59.9121 156.084 59.584 156.018C59.2598 155.955 58.9531 155.857 58.6641 155.725V154.535C58.9727 154.68 59.3184 154.805 59.7012 154.91C60.0879 155.016 60.4531 155.068 60.7969 155.068C61.25 155.068 61.5762 154.998 61.7754 154.857C61.9746 154.713 62.0742 154.521 62.0742 154.283C62.0742 154.143 62.0332 154.018 61.9512 153.908C61.873 153.795 61.7246 153.68 61.5059 153.562C61.291 153.441 60.9746 153.297 60.5566 153.129C60.1465 152.965 59.8008 152.801 59.5195 152.637C59.2383 152.473 59.0254 152.275 58.8809 152.045C58.7363 151.811 58.6641 151.512 58.6641 151.148C58.6641 150.574 58.8906 150.139 59.3438 149.842C59.8008 149.541 60.4043 149.391 61.1543 149.391C61.5527 149.391 61.9277 149.432 62.2793 149.514C62.6348 149.592 62.9824 149.707 63.3223 149.859L62.8887 150.896C62.5957 150.768 62.3008 150.662 62.0039 150.58C61.7109 150.494 61.4121 150.451 61.1074 150.451C60.752 150.451 60.4805 150.506 60.293 150.615C60.1094 150.725 60.0176 150.881 60.0176 151.084C60.0176 151.236 60.0625 151.365 60.1523 151.471C60.2422 151.576 60.3965 151.682 60.6152 151.787C60.8379 151.893 61.1465 152.023 61.541 152.18C61.9277 152.328 62.2617 152.484 62.543 152.648C62.8281 152.809 63.0469 153.006 63.1992 153.24C63.3516 153.475 63.4277 153.777 63.4277 154.148Z" fill="#424242"/>
<path d="M100.897 43H67.4207C67.4207 43 54.5556 59.2143 68.0477 87.1984H100.27C113.762 59.2143 100.897 43 100.897 43Z" fill="white"/>
<path d="M99.8493 65.1032C99.8493 73.9365 92.6906 81.1032 83.8493 81.1032C75.008 81.1032 67.8493 73.9365 67.8493 65.1032C67.8493 56.2698 75.016 49.1032 83.8493 49.1032C92.6826 49.1032 99.8493 56.2619 99.8493 65.1032Z" fill="#D9DBDF"/>
<path d="M67.889 87.1508C67.8493 88.8492 67.889 90.746 68.0477 92.9048H100.27C100.429 90.746 100.468 88.8492 100.429 87.1508H67.889Z" fill="#D6DBE9"/>
<g style="mix-blend-mode:multiply" opacity="0.55">
<path d="M100.429 89.2302C100.437 88.5079 100.437 87.8095 100.429 87.1508H67.889C67.8731 87.8095 67.8731 88.5079 67.889 89.2302H100.429Z" fill="#E4ECF2"/>
</g>
<path d="M72.4604 46.9365H70.6429C70.0477 46.9365 69.5715 46.5159 69.5715 46V45.8968C69.5715 45.381 70.0477 44.9603 70.6429 44.9603H72.4604C73.0556 44.9603 73.5318 45.381 73.5318 45.8968V46C73.5318 46.5159 73.0556 46.9365 72.4604 46.9365Z" fill="#D6DBE9"/>
<path d="M77.9921 46.9365H76.1747C75.5794 46.9365 75.1033 46.5159 75.1033 46V45.8968C75.1033 45.381 75.5794 44.9603 76.1747 44.9603H77.9921C78.5794 44.9603 79.0636 45.381 79.0636 45.8968V46C79.0636 46.5159 78.5874 46.9365 77.9921 46.9365Z" fill="#D6DBE9"/>
<path d="M99.1747 46.5714C99.1747 47.4683 98.4525 48.1905 97.5556 48.1905C96.6588 48.1905 95.9366 47.4603 95.9366 46.5714C95.9366 45.6826 96.6588 44.9524 97.5556 44.9524C98.4525 44.9524 99.1747 45.6746 99.1747 46.5714Z" fill="#D6DBE9"/>
<path d="M98.6509 46.5714C98.6509 47.1746 98.1588 47.6667 97.5557 47.6667C96.9525 47.6667 96.4604 47.1746 96.4604 46.5714C96.4604 45.9683 96.9525 45.4762 97.5557 45.4762C98.1588 45.4762 98.6509 45.9683 98.6509 46.5714Z" fill="white"/>
<path d="M98.7541 83.2222C98.7541 84.1191 98.0318 84.8413 97.135 84.8413C96.2382 84.8413 95.516 84.1191 95.516 83.2222C95.516 82.3254 96.2461 81.6032 97.135 81.6032C98.0239 81.6032 98.7541 82.3333 98.7541 83.2222Z" fill="#D6DBE9"/>
<g style="mix-blend-mode:multiply">
<path d="M94.8283 50.8248L93.285 52.3681C92.8945 52.7586 92.8945 53.3918 93.285 53.7823L94.8283 55.3256C95.2188 55.7161 95.852 55.7161 96.2425 55.3256L97.7858 53.7823C98.1763 53.3918 98.1763 52.7586 97.7858 52.3681L96.2425 50.8248C95.852 50.4343 95.2188 50.4343 94.8283 50.8248Z" fill="#E4ECF2"/>
</g>
<g style="mix-blend-mode:multiply">
<path d="M72.1768 50.8175L70.6336 52.3608C70.243 52.7513 70.243 53.3845 70.6336 53.775L72.1768 55.3183C72.5674 55.7089 73.2005 55.7089 73.5911 55.3183L75.1344 53.775C75.5249 53.3845 75.5249 52.7513 75.1344 52.3608L73.5911 50.8175C73.2005 50.427 72.5674 50.427 72.1768 50.8175Z" fill="#E4ECF2"/>
</g>
<g style="mix-blend-mode:multiply">
<path d="M94.8286 76.2061L93.2853 77.7493C92.8948 78.1399 92.8948 78.773 93.2853 79.1636L94.8286 80.7068C95.2191 81.0974 95.8523 81.0974 96.2428 80.7068L97.7861 79.1636C98.1766 78.773 98.1766 78.1399 97.7861 77.7493L96.2428 76.2061C95.8523 75.8155 95.2191 75.8155 94.8286 76.2061Z" fill="#E4ECF2"/>
</g>
<g style="mix-blend-mode:multiply">
<path d="M72.1771 76.2067L70.6338 77.75C70.2433 78.1405 70.2433 78.7737 70.6338 79.1642L72.1771 80.7075C72.5676 81.098 73.2008 81.098 73.5913 80.7075L75.1346 79.1642C75.5251 78.7737 75.5251 78.1405 75.1346 77.75L73.5913 76.2067C73.2008 75.8162 72.5676 75.8162 72.1771 76.2067Z" fill="#E4ECF2"/>
</g>
<path d="M94.8308 50.1606L93.2875 51.7039C92.8969 52.0944 92.897 52.7276 93.2875 53.1181L94.8308 54.6614C95.2213 55.0519 95.8545 55.0519 96.245 54.6614L97.7883 53.1181C98.1788 52.7276 98.1788 52.0944 97.7883 51.7039L96.245 50.1606C95.8545 49.7701 95.2213 49.7701 94.8308 50.1606Z" fill="#B5B9C1"/>
<path d="M72.1793 50.1613L70.636 51.7046C70.2455 52.0951 70.2455 52.7283 70.636 53.1188L72.1793 54.6621C72.5698 55.0526 73.203 55.0526 73.5935 54.6621L75.1368 53.1188C75.5273 52.7283 75.5273 52.0951 75.1368 51.7046L73.5935 50.1613C73.203 49.7708 72.5698 49.7708 72.1793 50.1613Z" fill="#B5B9C1"/>
<path d="M93.2878 77.0818L94.8311 75.5385C95.2239 75.1457 95.8524 75.1457 96.2453 75.5385L97.7886 77.0818C98.1814 77.4747 98.1758 78.1088 97.7886 78.496L96.2453 80.0393C95.8524 80.4322 95.2239 80.4322 94.8311 80.0393L93.2878 78.496C92.8949 78.1032 92.9005 77.4691 93.2878 77.0818Z" fill="#B5B9C1"/>
<path d="M70.6363 77.0825L72.1796 75.5392C72.5724 75.1464 73.201 75.1464 73.5938 75.5392L75.1371 77.0825C75.5299 77.4753 75.5243 78.1095 75.1371 78.4967L73.5938 80.04C73.201 80.4328 72.5668 80.4272 72.1796 80.04L70.6363 78.4967C70.2435 78.1039 70.2491 77.4697 70.6363 77.0825Z" fill="#B5B9C1"/>
<g style="mix-blend-mode:multiply">
<path d="M83.8493 49.4365C74.6826 49.4365 67.2223 56.8968 67.2223 66.0635C67.2223 75.2302 74.6826 82.6905 83.8493 82.6905C93.016 82.6905 100.476 75.2302 100.476 66.0635C100.476 56.8968 93.016 49.4365 83.8493 49.4365ZM94.5239 74.2936L90.9128 71.373C91.1191 71.0952 91.3096 70.8095 91.4842 70.5159L95.5874 72.6984C95.2699 73.2619 94.9128 73.7936 94.516 74.3016L94.5239 74.2936ZM89.2461 72.2063L86.889 69.2936L86.635 68.9762C86.6826 68.9365 86.7303 68.9048 86.7779 68.8571L86.9287 68.9841L89.9842 71.4603C89.7541 71.7222 89.508 71.9682 89.2461 72.1984V72.2063ZM92.0715 76.7381C91.5001 77.1746 90.9049 77.5794 90.2699 77.9286L89.9842 77.373L88.1588 73.7857C88.508 73.5952 88.8334 73.373 89.1509 73.1349L91.6826 76.2619L92.0795 76.746L92.0715 76.7381ZM84.8969 79.5L84.8652 78.873L84.8334 78.2222C84.8334 78.2222 84.881 78.2063 84.9049 78.1984C85.5239 77.9444 86.0556 77.5 86.4445 76.9524L86.8731 78.5476L86.9842 78.9524L87.0398 79.1508C86.3493 79.3175 85.635 79.4365 84.9049 79.4921L84.8969 79.5ZM81.4366 79.3254C80.7223 79.1984 80.0239 79.0079 79.3493 78.7619L79.9366 77.2381C79.9922 77.2857 80.0318 77.3333 80.0874 77.373C80.5477 77.7302 81.0636 78 81.6112 78.1984L81.4366 79.3254ZM75.6668 66.0555C75.6668 65.9841 75.6747 65.9048 75.6747 65.8333L79.2541 66.0794L79.6668 66.1111C79.6668 66.1825 79.6826 66.2619 79.6906 66.3333L79.2858 66.3889L75.7144 66.8889C75.6826 66.6111 75.6747 66.3333 75.6747 66.0555H75.6668ZM70.9683 62.0317C71.1826 61.3333 71.4683 60.6667 71.7937 60.0238L73.1429 60.7381C73.1033 60.8968 73.0715 61.0555 73.0477 61.2222C72.9921 61.7063 73.0636 62.1984 73.2064 62.6667L71.5715 62.1984L70.9683 62.0238V62.0317ZM73.6588 58.2222L74.262 58.7063C73.881 59.119 73.5636 59.5873 73.3493 60.1032L72.6509 59.7301L72.0953 59.4365C72.4128 58.873 72.7779 58.3333 73.1668 57.8254L73.6509 58.2222H73.6588ZM75.6271 55.373C76.1985 54.9286 76.8017 54.5238 77.4366 54.1825L77.7223 54.7381L78.8414 56.9286C78.2302 56.8968 77.6191 56.9524 77.0239 57.0952L76.0239 55.8571L75.6271 55.373ZM82.8572 53.0873V53.2301L83.0636 57.2381C82.6588 57.2698 82.2699 57.3333 81.881 57.4206L80.8414 53.5397L80.6826 52.9365C81.381 52.7698 82.0953 52.6508 82.8255 52.6032L82.8493 53.0794L82.8572 53.0873ZM86.2064 53.4127L86.3017 52.7936C87.0239 52.9286 87.7144 53.119 88.389 53.3651L88.1668 53.9524L86.7302 57.7063C86.3572 57.5794 85.9763 57.4682 85.5795 57.3889L86.2064 53.4206V53.4127ZM97.3414 66.0555C97.3414 66.2698 97.3176 66.4762 97.3096 66.6825L96.6826 66.6349L95.0318 66.5238C95.3731 65.9682 95.6191 65.3651 95.7699 64.7302L96.6271 64.6111L97.2461 64.5238C97.3017 65.0238 97.3414 65.5397 97.3414 66.0555ZM96.2858 69.2936L93.2699 68.4286C93.7699 68.0714 94.2223 67.6428 94.6033 67.1508L96.6509 67.2936L97.2779 67.3413C97.2064 68.0714 97.0715 68.7778 96.889 69.4682L96.2858 69.2936ZM84.7699 70.7381C84.6509 70.4921 84.5556 70.246 84.4842 69.9841C84.508 69.9841 84.5398 69.9841 84.5636 69.9841L84.6668 70.373L84.7699 70.746V70.7381ZM87.9683 63.119L87.6985 63.2857L87.3652 63.4921C87.3176 63.4206 87.262 63.3571 87.2144 63.2936L88.5001 62.0476C88.3493 62.4127 88.1826 62.7778 87.9763 63.1111L87.9683 63.119ZM89.3255 60.3413L86.7779 62.8016C86.6985 62.7222 86.6033 62.6587 86.516 62.5873L86.7382 62.2381L88.5874 59.3968C88.8969 59.619 89.1985 59.8651 89.4763 60.127C89.4207 60.1984 89.3731 60.2619 89.3176 60.3333L89.3255 60.3413ZM86.1271 61.9841L85.9842 62.2063C85.9049 62.1587 85.8255 62.119 85.7461 62.0794L87.1033 58.5476C87.4287 58.6905 87.7382 58.8571 88.0398 59.0397L86.1271 61.9841ZM79.6826 67.9444C79.4128 68.1905 79.1747 68.4682 78.9525 68.754L76.7541 70.127C76.5795 69.8254 76.4207 69.5079 76.2858 69.1825L79.6906 67.9444H79.6826ZM78.2064 69.9921C78.0636 70.3175 77.9366 70.6508 77.8493 70.9921C77.8096 71.1587 77.7937 71.3254 77.7699 71.5H77.762C77.5239 71.246 77.3017 70.9762 77.1033 70.6825L78.2144 69.9921H78.2064ZM86.8255 73.6667C86.5795 73.1587 86.2223 72.7143 85.8572 72.2778L85.3017 70.1984L85.1985 69.8016C85.2541 69.7857 85.3096 69.7698 85.3652 69.754L85.5477 70.1111L87.2699 73.4841C87.1271 73.5476 86.9842 73.6111 86.8334 73.6746L86.8255 73.6667ZM91.2382 69.3809C91.2382 69.3809 91.2937 69.3571 91.3255 69.3492C91.2858 69.4365 91.2461 69.5159 91.2064 69.6032L90.8969 69.4365C91.008 69.4127 91.1271 69.4048 91.2382 69.3809ZM95.889 64.0476C95.9525 63.3968 95.9049 62.7301 95.7382 62.0952L96.6271 61.7698C96.8572 62.4444 97.0239 63.1508 97.143 63.8651L95.889 64.0397V64.0476ZM95.5318 61.4762C95.2779 60.8651 94.9049 60.3095 94.4128 59.873L94.9287 59.5476L95.4604 59.2143C95.8255 59.8333 96.143 60.4841 96.4128 61.1587L95.5398 61.4762H95.5318ZM94.5874 58.9841L93.8334 59.4524C93.1826 59.0794 92.4049 58.9286 91.6668 58.9921L93.6588 57.0714L93.7858 56.9524C94.2699 57.4841 94.7223 58.0476 95.1191 58.6508L94.5874 58.9841ZM93.1826 56.6111L90.2699 59.4286C90.1588 59.5 90.0556 59.5794 89.9525 59.6667C89.6429 59.3651 89.3096 59.0952 88.9604 58.8413L91.1509 55.4682L91.4922 54.9444C92.1509 55.3968 92.7699 55.9127 93.3414 56.4682L93.1906 56.6111H93.1826ZM90.5874 55.1111L88.3969 58.4841C88.0556 58.2778 87.7064 58.0873 87.3414 57.9286L88.7858 54.1746L89.008 53.5873C89.6826 53.8651 90.3176 54.2063 90.9287 54.5873L90.5874 55.1111ZM86.4922 58.3095L85.2937 61.4365L85.1429 61.8174C85.0556 61.7857 84.9683 61.7619 84.881 61.7381L84.9445 61.3413L85.4683 58.0238C85.8176 58.0952 86.1588 58.1905 86.4922 58.3095ZM84.3414 60.9603C84.2144 60.6032 84.0636 60.254 83.8731 59.9286L83.762 57.873C83.762 57.873 83.8176 57.873 83.8414 57.873C84.1747 57.873 84.5001 57.8968 84.8176 57.9365L84.3334 60.9682L84.3414 60.9603ZM83.1588 58.9603C83.0239 58.8095 82.889 58.6508 82.7382 58.5159C82.5477 58.3413 82.3493 58.1905 82.1429 58.0476C82.4604 57.9841 82.7779 57.9365 83.1033 57.9048L83.1588 58.9603ZM81.2302 57.5159C80.7144 57.2778 80.1747 57.1111 79.6191 57.0159L78.3175 54.4603L78.0318 53.9047C78.6826 53.5952 79.3572 53.3254 80.0556 53.119L81.2382 57.5238L81.2302 57.5159ZM75.7223 65.0714C76.5795 65.2143 77.4445 64.9841 78.3096 64.8333L79.2937 65.1111L79.5318 65.1825L79.6906 65.2302C79.6826 65.3095 79.6747 65.3889 79.6668 65.4603H79.5239L79.2541 65.4286L75.7064 65.1825C75.7064 65.1825 75.7223 65.1111 75.7223 65.0714ZM79.3969 67.0397L79.8017 66.9841C79.8175 67.0555 79.8414 67.119 79.8652 67.1825L76.0556 68.5714C75.9445 68.2381 75.8652 67.8968 75.8017 67.5476L79.3969 67.0397ZM75.4366 68.7936L71.6588 70.1667L71.0715 70.3809C70.8414 69.7063 70.6668 69 70.5477 68.2778L75.1429 67.627C75.2144 68.0238 75.3096 68.4127 75.4366 68.7857V68.7936ZM75.6668 69.4127C75.8175 69.7857 76.0001 70.1349 76.1985 70.4841L72.262 72.9444C71.8969 72.3254 71.5715 71.6825 71.3017 71L75.6668 69.4127ZM72.6588 73.4682L73.135 73.1667L76.5477 71.0317C76.7699 71.3651 77.0239 71.6667 77.2937 71.9603L74.4048 74.754L73.9525 75.1905C73.4604 74.6587 73.008 74.0952 72.6033 73.4921L72.6588 73.4603V73.4682ZM74.8493 75.2381L77.6985 72.4841C77.7064 73.1508 77.8175 73.8175 78.0318 74.4444L76.5874 76.6667L76.2461 77.1905C75.5874 76.7381 74.9683 76.2302 74.3969 75.6667L74.8493 75.2302V75.2381ZM78.3414 75.1825C78.6191 75.754 78.9763 76.2936 79.4128 76.754L78.7302 78.5317C78.0556 78.254 77.4207 77.9206 76.8096 77.5397L78.3414 75.1746V75.1825ZM87.5001 78.3889L86.889 76.119C87.1191 75.5317 87.1826 74.9048 87.0398 74.3016C87.2144 74.2302 87.389 74.1587 87.5636 74.0794L89.6747 78.2143C89.0318 78.5238 88.3572 78.7936 87.6588 79L87.5001 78.3968V78.3889ZM87.8572 73.1905L86.1429 69.8254L85.9604 69.4603C86.008 69.4286 86.0636 69.4048 86.1191 69.373L86.3731 69.6825L88.7382 72.6032C88.4604 72.8095 88.1668 73.0079 87.8652 73.1825L87.8572 73.1905ZM88.516 69.4206C88.9049 69.5 89.3017 69.5397 89.6985 69.5476L90.9049 70.1905C90.7541 70.4524 90.5795 70.7063 90.3969 70.9444L88.508 69.4206H88.516ZM95.8969 72.1032L95.3414 71.8095L91.7937 69.9206C91.9287 69.6508 92.0477 69.3651 92.1509 69.0794C92.2699 69.0238 92.389 68.9603 92.508 68.8968L96.7223 70.1032C96.5001 70.7936 96.2223 71.4603 95.8969 72.1032ZM85.5556 53.3254L84.9287 57.2936C84.5715 57.254 84.2144 57.2222 83.8493 57.2222C83.8096 57.2222 83.7699 57.2222 83.7302 57.2222L83.4842 52.5873C83.6033 52.5873 83.7223 52.5714 83.8414 52.5714C84.4525 52.5714 85.0556 52.627 85.6509 52.7063L85.5556 53.3254ZM75.1112 55.8016L75.508 56.2857L76.3493 57.3254C76.262 57.3571 76.1747 57.3809 76.0874 57.4206C75.6033 57.6349 75.1509 57.9286 74.7382 58.2698L73.5795 57.3333C74.0477 56.7857 74.5636 56.2698 75.1112 55.8016ZM70.7937 62.6905L71.3969 62.8651L73.5477 63.4841C73.9128 64.1111 74.4366 64.627 75.0874 64.9048C75.0795 64.9841 75.0556 65.0714 75.0477 65.1508L70.4128 64.8254C70.4763 64.0952 70.6191 63.3809 70.7937 62.6905ZM70.3493 66.0714C70.3493 65.873 70.3731 65.6746 70.381 65.4762L75.016 65.8016C75.016 65.8889 75.0001 65.9762 75.0001 66.0714C75.0001 66.3809 75.016 66.6905 75.0477 67L70.4525 67.6508C70.389 67.1349 70.3493 66.6111 70.3493 66.0794V66.0714ZM82.1588 78.9365L82.2461 78.3968C82.889 78.5397 83.5477 78.5635 84.1826 78.4286L84.2382 79.5476C84.1112 79.5476 83.9763 79.5714 83.8493 79.5714C83.2461 79.5714 82.6668 79.5159 82.0874 79.4444L82.1668 78.9444L82.1588 78.9365ZM92.5795 76.3413L92.1826 75.8571L89.6509 72.7302C89.9525 72.4682 90.2303 72.1905 90.4922 71.8889L93.8334 74.5952L94.1033 74.8095C93.635 75.3571 93.1271 75.8651 92.5795 76.3333V76.3413Z" fill="#E4ECF2"/>
</g>
<path d="M84.4445 64.0953C85.1985 61.8413 84.508 59.1667 82.7541 57.5635C81.0001 55.9603 78.2779 55.508 76.0953 56.4603C74.5318 57.1429 73.2382 58.5873 73.0556 60.2857C72.8731 61.9841 74.016 63.8095 75.6906 64.1191C76.9445 64.3492 78.1985 63.7619 79.4763 63.754C80.9287 63.754 82.3572 64.5635 83.0953 65.8175C83.7858 65.5397 84.389 65.0556 84.8017 64.4365L84.4525 64.1032L84.4445 64.0953Z" fill="#858C99"/>
<path d="M82.7779 65.4206C80.4366 65.8413 78.4287 67.7381 77.8572 70.0476C77.2937 72.3572 78.2064 74.9683 80.0874 76.4206C81.4366 77.4603 83.3255 77.9048 84.8969 77.254C86.4763 76.6032 87.5318 74.7222 86.9921 73.1032C86.5874 71.8968 85.4683 71.0714 84.8493 69.9603C84.1429 68.6905 84.1747 67.0397 84.9207 65.7937C84.3493 65.3175 83.6271 65.0238 82.889 64.9524L82.762 65.4206H82.7779Z" fill="#858C99"/>
<path d="M84.8652 66.2381C86.3334 68.1111 88.9366 69.0159 91.2461 68.4365C93.5556 67.8571 95.4366 65.8413 95.8493 63.4921C96.1429 61.8095 95.6509 59.9365 94.3414 58.8492C93.0318 57.754 90.8731 57.6984 89.6906 58.9286C88.8096 59.8492 88.6033 61.2222 87.9049 62.2857C87.1112 63.5 85.635 64.2381 84.1826 64.1587C84.0318 64.8889 84.1033 65.6587 84.389 66.3413L84.8652 66.2381Z" fill="#858C99"/>
<path d="M83.8493 73.9444C78.9683 73.9444 75.0001 69.9762 75.0001 65.0952C75.0001 60.2143 78.9683 56.246 83.8493 56.246C88.7302 56.246 92.6985 60.2143 92.6985 65.0952C92.6985 69.9762 88.7302 73.9444 83.8493 73.9444ZM83.8493 56.9048C79.3334 56.9048 75.6588 60.5794 75.6588 65.0952C75.6588 69.6111 79.3334 73.2857 83.8493 73.2857C88.3652 73.2857 92.0398 69.6111 92.0398 65.0952C92.0398 60.5794 88.3652 56.9048 83.8493 56.9048Z" fill="white"/>
<path d="M94.4966 54.3915L72.7867 75.3712L73.2445 75.8448L94.9544 54.8652L94.4966 54.3915Z" fill="white"/>
<path d="M96.5006 56.8372L70.9004 72.8401L71.2496 73.3987L96.8497 57.3957L96.5006 56.8372Z" fill="white"/>
<path d="M97.9461 59.6513L69.5746 69.9721L69.7997 70.5912L98.1713 60.2704L97.9461 59.6513Z" fill="white"/>
<path d="M98.7732 62.6919L68.878 66.904L68.9699 67.5563L98.8651 63.3441L98.7732 62.6919Z" fill="white"/>
<path d="M68.8296 63.7412L68.7838 64.3984L98.9011 66.4991L98.9469 65.842L68.8296 63.7412Z" fill="white"/>
<path d="M69.4475 60.6475L69.2661 61.2808L98.2885 69.5973L98.47 68.9641L69.4475 60.6475Z" fill="white"/>
<path d="M70.6922 57.7402L70.383 58.3219L97.0421 72.4908L97.3512 71.9091L70.6922 57.7402Z" fill="white"/>
<path d="M72.347 55.3654L71.9323 55.8773L95.3914 74.8809L95.8061 74.369L72.347 55.3654Z" fill="white"/>
<path d="M74.6229 53.1794L74.1109 53.5939L93.1063 77.0596L93.6183 76.6451L74.6229 53.1794Z" fill="white"/>
<path d="M77.3126 51.5193L76.7256 51.8182L90.4271 78.7205L91.0141 78.4216L77.3126 51.5193Z" fill="white"/>
<path d="M80.2796 50.4489L79.6433 50.6193L87.452 79.7824L88.0884 79.612L80.2796 50.4489Z" fill="white"/>
<path d="M83.4075 50.0248L82.7497 50.0591L84.3245 80.2085L84.9823 80.1741L83.4075 50.0248Z" fill="white"/>
<path d="M85.9102 50.1532L81.1769 79.9703L81.8275 80.0736L86.5608 50.2565L85.9102 50.1532Z" fill="white"/>
<path d="M88.9906 50.9119L78.1418 79.0858L78.7565 79.3225L89.6053 51.1486L88.9906 50.9119Z" fill="white"/>
<path d="M91.8317 52.2846L75.3711 77.593L75.9233 77.9521L92.3839 52.6437L91.8317 52.2846Z" fill="white"/>
<path d="M82.7858 66.1825L81.389 67.0555L80.4445 67.9682C80.5953 68.127 80.7461 68.2857 80.9207 68.4286L82.0239 67.3651L82.7858 66.1905V66.1825Z" fill="#E4ECF2"/>
<path d="M84.9525 64.0555L86.3493 63.1825L87.508 62.0635C87.3731 61.8889 87.2302 61.7222 87.0715 61.5714L85.7144 62.8809L84.9445 64.0635L84.9525 64.0555Z" fill="#E4ECF2"/>
<path d="M82.5239 65.9603L81.0398 66.5L79.881 67.2222C79.9922 67.4127 80.1191 67.5952 80.2541 67.7619L81.381 67.0556L82.516 65.9603H82.5239Z" fill="#E4ECF2"/>
<path d="M85.2064 64.2857L86.6906 63.746L88.0239 62.9127C87.9287 62.7143 87.8255 62.5159 87.7064 62.3333L86.3493 63.1826L85.2144 64.2778L85.2064 64.2857Z" fill="#E4ECF2"/>
<path d="M82.381 65.6587L80.8175 65.8809L79.4921 66.3651C79.5636 66.5714 79.6509 66.7778 79.7461 66.9682L81.0398 66.5L82.381 65.6587Z" fill="#E4ECF2"/>
<path d="M85.3572 64.5794L86.9207 64.3572L88.3493 63.8413C88.3017 63.627 88.2382 63.4127 88.1588 63.2143L86.6985 63.746L85.3572 64.5873V64.5794Z" fill="#E4ECF2"/>
<path d="M85.4366 64.8968L87.0159 65.0079L88.4683 64.8016C88.4683 64.5794 88.4445 64.3571 88.4128 64.1429L86.9286 64.3492L85.4445 64.8889L85.4366 64.8968Z" fill="#E4ECF2"/>
<path d="M82.3017 65.3413L80.7223 65.2302L79.2699 65.4365C79.2937 65.6587 79.3414 65.873 79.3969 66.0794L80.8096 65.881L82.2937 65.3413H82.3017Z" fill="#E4ECF2"/>
<path d="M82.2937 65.0079L80.7699 64.5714L79.254 64.4683C79.2461 64.6032 79.2302 64.7302 79.2302 64.8651C79.2302 64.9524 79.2382 65.0397 79.2461 65.127L80.7223 65.2302L82.2858 65.0079H82.2937Z" fill="#E4ECF2"/>
<path d="M85.4445 65.2302L86.9683 65.6667L88.381 65.7619C88.4207 65.5476 88.4445 65.3333 88.4604 65.1111L87.0239 65.0079L85.4604 65.2302H85.4445Z" fill="#E4ECF2"/>
<path d="M85.389 65.5555L86.7858 66.2936L88.0953 66.6667C88.1826 66.4682 88.2461 66.254 88.3017 66.0397L86.9604 65.6587L85.381 65.5476L85.389 65.5555Z" fill="#E4ECF2"/>
<path d="M82.3493 64.6825L80.9525 63.9365L79.4366 63.5C79.3731 63.7063 79.3255 63.9206 79.2937 64.1429L80.7699 64.5635L82.3493 64.6746V64.6825Z" fill="#E4ECF2"/>
<path d="M85.3334 65.881L86.7302 67.0079L87.6429 67.4921C87.7699 67.3095 87.881 67.119 87.9763 66.9286L86.7858 66.2937L85.3334 65.873V65.881Z" fill="#E4ECF2"/>
<path d="M82.4048 64.3571L81.008 63.2302L79.8255 62.6032C79.7144 62.7937 79.6271 62.9921 79.5477 63.1984L80.9445 63.9444L82.3969 64.3651L82.4048 64.3571Z" fill="#E4ECF2"/>
<path d="M82.5953 64.0714L81.6429 62.8968L80.3572 61.8571C80.2144 62.0238 80.0795 62.1984 79.9604 62.3889L81.008 63.2381L82.5953 64.0794V64.0714Z" fill="#E4ECF2"/>
<path d="M85.1429 66.1667L86.0953 67.3413L87.0953 68.1508C87.2541 68 87.3969 67.8254 87.5239 67.6508L86.7302 67.0079L85.1429 66.1667Z" fill="#E4ECF2"/>
<path d="M82.8731 63.8889L82.1588 62.4762L81.0953 61.1667C80.9207 61.3016 80.7461 61.4365 80.5953 61.5952L81.6429 62.8889L82.8731 63.8889Z" fill="#E4ECF2"/>
<path d="M84.8652 66.3492L85.5794 67.754L86.3652 68.7302C86.5477 68.6111 86.7223 68.4762 86.889 68.3333L86.0874 67.3492L84.8572 66.3571L84.8652 66.3492Z" fill="#E4ECF2"/>
<path d="M84.5874 66.5317L85.0001 68.0555L85.5556 69.1508C85.762 69.0714 85.9604 68.9762 86.1509 68.8651L85.5874 67.754L84.5953 66.5238L84.5874 66.5317Z" fill="#E4ECF2"/>
<path d="M83.1509 63.7143L82.7382 62.1905L81.9604 60.6667C81.762 60.754 81.5636 60.8651 81.381 60.9762L82.1509 62.4841L83.1429 63.7143H83.1509Z" fill="#E4ECF2"/>
<path d="M83.4604 63.5952L83.381 62.0159L82.9366 60.3492C82.7223 60.3889 82.508 60.4603 82.3017 60.5318L82.7461 62.1905L83.4604 63.5952Z" fill="#E4ECF2"/>
<path d="M84.2779 66.6508L84.3572 68.2302L84.6747 69.4048C84.889 69.3651 85.1033 69.3095 85.3096 69.2381L84.9921 68.0476L84.2779 66.6429V66.6508Z" fill="#E4ECF2"/>
<path d="M83.7858 63.5397L84.0318 61.9762L83.9445 60.254C83.9445 60.254 83.881 60.254 83.8493 60.254C83.6588 60.254 83.4683 60.2698 83.2858 60.2937L83.3731 62.0159L83.7858 63.5476V63.5397Z" fill="#E4ECF2"/>
<path d="M83.9525 66.6984L83.7064 68.2619L83.7699 69.4762C83.7699 69.4762 83.8255 69.4762 83.8572 69.4762C84.0556 69.4762 84.2382 69.4603 84.4287 69.4365L84.3652 68.2222L83.9525 66.6905V66.6984Z" fill="#E4ECF2"/>
<path d="M84.1191 63.5555L84.6826 62.0794L84.9525 60.3889C84.7382 60.3333 84.5239 60.2936 84.3017 60.2778L84.0318 61.9841L84.1112 63.5635L84.1191 63.5555Z" fill="#E4ECF2"/>
<path d="M83.6191 66.6825L83.0556 68.1587L82.8652 69.373C83.0794 69.4206 83.2937 69.4524 83.516 69.4682L83.7064 68.2619L83.6271 66.6825H83.6191Z" fill="#E4ECF2"/>
<path d="M83.3017 66.5952L82.4366 67.9206L81.9921 69.0873C82.1906 69.1746 82.3969 69.246 82.6112 69.3095L83.0556 68.1587L83.3017 66.5952Z" fill="#E4ECF2"/>
<path d="M84.4366 63.6429L85.3017 62.3175L85.9048 60.7381C85.7064 60.6429 85.508 60.5556 85.2937 60.4841L84.6826 62.0794L84.4366 63.6429Z" fill="#E4ECF2"/>
<path d="M84.7064 63.8492L85.7223 62.873L86.7541 61.2778C86.5874 61.1429 86.4048 61.0159 86.2144 60.9048L85.3017 62.3175L84.7144 63.8492H84.7064Z" fill="#E4ECF2"/>
<path d="M83.0318 66.3889L82.0239 67.3651L81.1985 68.6349C81.381 68.7619 81.5636 68.873 81.762 68.9762L82.4445 67.9206L83.0318 66.381V66.3889Z" fill="#E4ECF2"/>
<path d="M88.0715 64.8651C88.0715 67.1984 86.1826 69.0873 83.8493 69.0873C81.5159 69.0873 79.6271 67.1984 79.6271 64.8651C79.6271 62.5317 81.5159 60.6429 83.8493 60.6429C86.1826 60.6429 88.0715 62.5317 88.0715 64.8651Z" fill="#D6DBE9"/>
<g style="mix-blend-mode:multiply" opacity="0.35">
<path d="M87.2699 65.1825C87.2699 67.0714 85.7382 68.6032 83.8493 68.6032C81.9604 68.6032 80.4287 67.0714 80.4287 65.1825C80.4287 63.2936 81.9604 61.7619 83.8493 61.7619C85.7382 61.7619 87.2699 63.2936 87.2699 65.1825Z" fill="#D6DBE9"/>
</g>
<path d="M87.2699 64.8651C87.2699 66.754 85.7382 68.2857 83.8493 68.2857C81.9604 68.2857 80.4287 66.754 80.4287 64.8651C80.4287 62.9762 81.9604 61.4445 83.8493 61.4445C85.7382 61.4445 87.2699 62.9762 87.2699 64.8651Z" fill="white"/>
<path d="M83.8493 48.4762C74.6826 48.4762 67.2223 55.9365 67.2223 65.1032C67.2223 74.2699 74.6826 81.7302 83.8493 81.7302C93.016 81.7302 100.476 74.2699 100.476 65.1032C100.476 55.9365 93.016 48.4762 83.8493 48.4762ZM83.8493 80.0476C75.6033 80.0476 68.9048 73.3413 68.9048 65.1032C68.9048 56.8651 75.6112 50.1508 83.8493 50.1508C92.0874 50.1508 98.7937 56.8572 98.7937 65.0953C98.7937 73.3334 92.0874 80.0397 83.8493 80.0397V80.0476Z" fill="#D6DBE9"/>
<path d="M74.4048 73.8095L73.3572 74.8175C73.508 74.9762 73.6588 75.1349 73.8175 75.2857L74.8572 74.2778C74.6985 74.127 74.5556 73.9603 74.4048 73.8016V73.8095Z" fill="#E4ECF2"/>
<path d="M93.3334 56.4286L94.381 55.4206C94.2302 55.2619 94.0794 55.1032 93.9286 54.9445L92.889 55.9524C93.0477 56.1032 93.1906 56.2699 93.3334 56.4365V56.4286Z" fill="#E4ECF2"/>
<path d="M94.9366 58.5953L96.1667 57.8254C96.0556 57.6349 95.9366 57.4524 95.8175 57.2699L94.5874 58.0397C94.7064 58.2222 94.8175 58.4127 94.9286 58.6032L94.9366 58.5953Z" fill="#E4ECF2"/>
<path d="M72.7937 71.6508L71.5556 72.4207C71.6667 72.6111 71.7858 72.7937 71.9048 72.9762L73.1271 72.2064C73.008 72.0238 72.8969 71.8334 72.7858 71.6429L72.7937 71.6508Z" fill="#E4ECF2"/>
<path d="M96.0477 61.0318L97.4128 60.5397C97.3413 60.3334 97.2699 60.127 97.1906 59.9207L95.8255 60.4207C95.9048 60.627 95.9842 60.8254 96.0556 61.0397L96.0477 61.0318Z" fill="#E4ECF2"/>
<path d="M71.6667 69.2143L70.3017 69.7143C70.3731 69.9206 70.4445 70.127 70.5318 70.3333L71.8969 69.8333C71.8175 69.627 71.7382 69.4206 71.6667 69.2143Z" fill="#E4ECF2"/>
<path d="M96.635 63.6587L98.0715 63.4603C98.0477 63.2381 98.0159 63.0238 97.9842 62.8095L96.5397 63.0159C96.5715 63.2302 96.6112 63.4445 96.6429 63.6667L96.635 63.6587Z" fill="#E4ECF2"/>
<path d="M71.0715 66.5873L69.635 66.7857C69.6588 67.0079 69.6905 67.2222 69.7302 67.4365L71.1747 67.2302C71.135 67.0159 71.1032 66.8016 71.0715 66.5794V66.5873Z" fill="#E4ECF2"/>
<path d="M96.6588 66.3413L98.1032 66.4445C98.1271 66.2302 98.1429 66.008 98.1509 65.7857L96.6985 65.6826C96.6905 65.9048 96.6826 66.127 96.6667 66.3413H96.6588Z" fill="#E4ECF2"/>
<path d="M71.0398 63.8968L69.5953 63.7937C69.5794 64.008 69.5556 64.2302 69.5477 64.4524L71.0001 64.5556C71.008 64.3334 71.016 64.1111 71.0318 63.8968H71.0398Z" fill="#E4ECF2"/>
<path d="M71.5715 61.254L70.1826 60.8572C70.1191 61.0635 70.0556 61.2778 70.0001 61.4921L71.4048 61.8969C71.4604 61.6826 71.508 61.4683 71.5715 61.2619V61.254Z" fill="#E4ECF2"/>
<path d="M96.1191 68.9762L97.508 69.373C97.5715 69.1667 97.635 68.9524 97.6906 68.7381L96.2858 68.3333C96.2302 68.5476 96.1826 68.7619 96.1191 68.9683V68.9762Z" fill="#E4ECF2"/>
<path d="M95.0397 71.4286L96.3175 72.1111C96.4286 71.9207 96.5318 71.7302 96.627 71.5318L95.3413 70.8492C95.2461 71.0477 95.1429 71.2381 95.0318 71.4286H95.0397Z" fill="#E4ECF2"/>
<path d="M72.6509 58.7857L71.3731 58.1032C71.262 58.2937 71.1667 58.4842 71.0636 58.6826L72.3493 59.3651C72.4445 59.1667 72.5477 58.9683 72.6509 58.7778V58.7857Z" fill="#E4ECF2"/>
<path d="M93.6271 73.4445L94.754 74.3572C94.8969 74.1905 95.0318 74.0159 95.1667 73.8492L94.0398 72.9365C93.9048 73.1111 93.7699 73.2857 93.6271 73.4524V73.4445Z" fill="#E4ECF2"/>
<path d="M74.0715 56.7619L72.9445 55.8492C72.8017 56.0159 72.6668 56.1825 72.5318 56.3571L73.6588 57.2698C73.7937 57.0952 73.9287 56.9206 74.0715 56.754V56.7619Z" fill="#E4ECF2"/>
<path d="M76.0239 54.9048L75.1112 53.7778C74.9366 53.9127 74.7699 54.0476 74.6033 54.1905L75.516 55.3175C75.6826 55.1746 75.8572 55.0397 76.0318 54.9048H76.0239Z" fill="#E4ECF2"/>
<path d="M91.6826 75.2937L92.5953 76.4207C92.7699 76.2857 92.9366 76.1508 93.1033 76.008L92.1906 74.881C92.0239 75.0238 91.8493 75.1588 91.6747 75.2937H91.6826Z" fill="#E4ECF2"/>
<path d="M89.3969 76.6984L90.0556 78C90.2541 77.9048 90.4445 77.8016 90.6429 77.6984L89.9842 76.4127C89.7937 76.5159 89.5874 76.6032 89.389 76.6984H89.3969Z" fill="#E4ECF2"/>
<path d="M78.3175 53.5L77.6588 52.1984C77.4604 52.2937 77.262 52.3968 77.0715 52.5L77.7302 53.7857C77.9207 53.6826 78.1271 53.5953 78.3255 53.5H78.3175Z" fill="#E4ECF2"/>
<path d="M86.8731 77.5953L87.2461 79C87.4604 78.9445 87.6747 78.8889 87.881 78.8254L87.508 77.4286C87.3017 77.4921 87.0874 77.5397 86.8731 77.5953Z" fill="#E4ECF2"/>
<path d="M80.8572 52.5953L80.4842 51.1905C80.2699 51.246 80.0556 51.3016 79.8493 51.3572L80.2223 52.754C80.4287 52.6905 80.6429 52.6429 80.8572 52.5873V52.5953Z" fill="#E4ECF2"/>
<path d="M84.2064 77.9524L84.2858 79.4048C84.508 79.4048 84.7223 79.3889 84.9445 79.373L84.8652 77.9207C84.6509 77.9365 84.4287 77.9445 84.2064 77.9524Z" fill="#E4ECF2"/>
<path d="M83.5239 52.2461L83.4445 50.7937C83.2223 50.7937 83.008 50.8095 82.7858 50.8254L82.8652 52.2778C83.0794 52.2619 83.3017 52.2461 83.5239 52.2461Z" fill="#E4ECF2"/>
<path d="M86.2064 52.4603L86.4366 51.0318C86.2223 50.9921 86.008 50.9603 85.7858 50.9286L85.5556 52.3651C85.7699 52.3968 85.9921 52.4207 86.2064 52.4603Z" fill="#E4ECF2"/>
<path d="M81.5318 77.746L81.3017 79.1825C81.516 79.2222 81.7302 79.254 81.9525 79.2857L82.1826 77.8492C81.9683 77.8175 81.7461 77.7857 81.5318 77.754V77.746Z" fill="#E4ECF2"/>
<path d="M88.7937 53.2223L89.3096 51.873C89.1112 51.7857 88.9048 51.7064 88.6985 51.6349L88.1747 52.9921C88.381 53.0635 88.5874 53.135 88.7937 53.2223Z" fill="#E4ECF2"/>
<path d="M78.9525 76.9921L78.4366 78.3413C78.635 78.4206 78.8413 78.5 79.0477 78.5794L79.5715 77.2222C79.3652 77.1508 79.1588 77.0794 78.9525 76.9921Z" fill="#E4ECF2"/>
<path d="M91.1509 54.5159L91.9366 53.3016C91.754 53.1746 91.5715 53.0556 91.389 52.9445L90.5953 54.1667C90.7858 54.2857 90.9683 54.3968 91.1509 54.5159Z" fill="#E4ECF2"/>
<path d="M76.5953 75.7143L75.8096 76.9286C75.9921 77.0556 76.1747 77.1746 76.3652 77.2857L77.1588 76.0635C76.9683 75.9524 76.7779 75.8413 76.6033 75.7143H76.5953Z" fill="#E4ECF2"/>
<path d="M83.8493 50.0873C75.5715 50.0873 68.8414 56.8175 68.8414 65.0953C68.8414 73.373 75.5715 80.1032 83.8493 80.1032C92.1271 80.1032 98.8572 73.3651 98.8572 65.0953C98.8572 56.8254 92.1271 50.0873 83.8493 50.0873ZM83.8493 78.5953C76.4048 78.5953 70.3572 72.5397 70.3572 65.0953C70.3572 57.6508 76.4128 51.6032 83.8493 51.6032C91.2858 51.6032 97.3414 57.6587 97.3414 65.0953C97.3414 72.5318 91.2858 78.5953 83.8493 78.5953Z" fill="white"/>
<g style="mix-blend-mode:multiply">
<path d="M100.294 87.1508C113.746 59.1984 100.897 43 100.897 43H84.1588V92.9047H100.27C100.365 91.5873 100.413 90.373 100.429 89.2301C100.429 88.8809 100.437 88.5317 100.429 88.1984C100.429 87.8413 100.429 87.492 100.421 87.1508H100.286H100.294Z" fill="#E3E6E6"/>
</g>
</svg>
