<svg width="65" height="66" viewBox="0 0 65 66" fill="none" xmlns="http://www.w3.org/2000/svg">
<g clip-path="url(#clip0_339_60846)">
<path d="M1.48337 40.2325C1.08506 40.2325 0.728672 39.9475 0.646813 39.5358C-0.0919144 35.8129 -0.19873 32.0374 0.328361 28.3135C0.838482 24.7134 1.92761 21.24 3.56578 17.9887C3.78041 17.5618 4.29553 17.3934 4.7158 17.6115C5.13608 17.8295 5.30179 18.3528 5.08716 18.7798C3.53484 21.8596 2.50261 25.1505 2.01945 28.5599C1.52031 32.0881 1.62213 35.6649 2.32193 39.192C2.41477 39.6615 2.11628 40.1189 1.65308 40.2142C1.59618 40.2254 1.53927 40.2314 1.48337 40.2314V40.2325Z" fill="#254BEC"/>
<path d="M6.9461 14.9309C6.77141 14.9309 6.59471 14.8772 6.44297 14.7636C6.06163 14.4807 5.97877 13.9381 6.25629 13.5507C11.052 6.87578 18.0889 2.29804 26.0711 0.663275C33.1539 -0.786918 40.3166 0.151144 46.7865 3.37706C47.2097 3.588 47.3844 4.10824 47.1768 4.53823C46.9691 4.96822 46.457 5.14569 46.0338 4.93475C39.9053 1.87921 33.119 0.989822 26.4096 2.36497C18.8476 3.91353 12.1801 8.24991 7.63691 14.575C7.4702 14.8082 7.20965 14.9309 6.9461 14.9309Z" fill="#254BEC"/>
<path d="M63.4976 27.5303C63.0993 27.5303 62.7429 27.2453 62.661 26.8336C61.0947 18.9407 56.6604 12.0467 50.1745 7.42333C49.7882 7.1485 49.6954 6.60696 49.9659 6.2145C50.2374 5.82203 50.7695 5.72772 51.1559 6.00255C58.0021 10.8835 62.682 18.1588 64.3352 26.4908C64.428 26.9604 64.1285 27.4177 63.6663 27.5131C63.6094 27.5252 63.5525 27.5303 63.4966 27.5303H63.4976Z" fill="#254BEC"/>
<path d="M64.1405 34.5279C64.1355 34.5279 64.1295 34.5279 64.1235 34.5279C63.6524 34.5188 63.277 34.1233 63.286 33.6436C63.3289 31.3669 63.1243 29.075 62.679 26.8307C62.5862 26.3612 62.8847 25.9028 63.3479 25.8085C63.8111 25.7132 64.2613 26.0174 64.3541 26.488C64.8243 28.8559 65.04 31.2746 64.995 33.6771C64.9861 34.1506 64.6057 34.5279 64.1415 34.5279H64.1405Z" fill="#254BEC"/>
<path d="M1.80395 41.6001C1.41961 41.6001 1.07121 41.3355 0.975375 40.94C0.860572 40.4643 0.755753 39.9907 0.664909 39.5334C0.571071 39.0638 0.870555 38.6054 1.33276 38.5111C1.79596 38.4158 2.24618 38.72 2.33902 39.1896C2.42488 39.6236 2.5247 40.0729 2.63452 40.5242C2.74732 40.9896 2.4678 41.4592 2.00959 41.5738C1.94071 41.591 1.87183 41.5991 1.80494 41.5991L1.80395 41.6001Z" fill="#254BEC"/>
<path d="M24.3251 64.9293C24.1245 64.9293 23.9238 64.8583 23.7621 64.7133C23.4077 64.3969 23.3728 63.8492 23.6842 63.4882C27.1443 59.4875 29.7108 54.6674 31.1044 49.5511C32.5659 44.1864 32.7536 38.6798 31.6625 33.1842C31.5696 32.7147 31.8681 32.2573 32.3313 32.162C32.7935 32.0667 33.2448 32.3709 33.3376 32.8415C34.4826 38.6067 34.286 44.3852 32.7516 50.0146C31.2891 55.3823 28.5978 60.4377 24.968 64.6342C24.7993 64.8299 24.5627 64.9293 24.3261 64.9293H24.3251Z" fill="#254BEC"/>
<path d="M20.2362 63.5061C20.0215 63.5061 19.8059 63.4239 19.6402 63.2597C19.3028 62.925 19.2958 62.3753 19.6252 62.0326C22.5392 58.9983 24.7853 55.458 26.3017 51.51C26.4734 51.0638 26.9686 50.8428 27.4078 51.0172C27.847 51.1916 28.0647 51.6946 27.893 52.1408C26.2927 56.3058 23.9228 60.0418 20.8481 63.2444C20.6804 63.4189 20.4588 63.5061 20.2362 63.5061Z" fill="#254BEC"/>
<path d="M28.7534 65.7951C28.5697 65.7951 28.384 65.7352 28.2283 65.6115C27.8569 65.3164 27.791 64.7708 28.0815 64.3935C35.0585 55.3232 37.7768 43.6588 35.5397 32.3909L35.4818 32.1009C35.2741 31.393 34.8329 30.7866 34.219 30.3718C33.5242 29.9033 32.6926 29.737 31.876 29.9053C30.3307 30.2217 29.2815 31.6547 29.3773 33.2114L29.4612 33.6353C30.3496 38.1156 30.3267 42.6346 29.3923 47.0683C29.2935 47.5368 28.8392 47.835 28.378 47.7346C27.9168 47.6342 27.6233 47.1728 27.7222 46.7042C28.5497 42.7806 28.6226 38.785 27.9418 34.8147L27.9238 34.8177L27.7581 33.9831C27.232 31.3312 28.9271 28.7391 31.5376 28.2046C32.8014 27.945 34.0892 28.2016 35.1643 28.9277C36.2385 29.6528 36.9712 30.7592 37.2268 32.0441L37.3775 32.8006L37.3576 32.8067C39.426 44.3352 36.5559 56.1954 29.4272 65.4624C29.2585 65.6815 29.0069 65.7961 28.7534 65.7961V65.7951Z" fill="#254BEC"/>
<path d="M16.4995 61.6028C16.2709 61.6028 16.0433 61.5105 15.8756 61.328C15.5532 60.9781 15.5711 60.4285 15.9155 60.1019C22.2676 54.0649 25.3652 45.2522 24.2022 36.5267C24.1394 36.0521 24.4668 35.615 24.934 35.5501C25.4022 35.4852 25.8314 35.8188 25.8953 36.2934C27.1322 45.5747 23.8379 54.9492 17.0835 61.3686C16.9188 61.5247 16.7092 61.6028 16.5005 61.6028H16.4995Z" fill="#254BEC"/>
<path d="M41.119 40.9492C40.6489 40.9492 40.2665 40.5618 40.2655 40.0842C40.2585 37.2558 39.972 34.4 39.417 31.596L39.3501 31.2603C38.9218 29.5211 37.8856 28.0283 36.4062 27.0294C34.8329 25.9676 32.9471 25.5914 31.0953 25.9707C28.3161 26.5396 26.1468 28.7291 25.5678 31.5473C25.471 32.0169 25.0188 32.3181 24.5576 32.2197C24.0954 32.1213 23.7999 31.6619 23.8957 31.1934C24.6145 27.6937 27.3088 24.9768 30.7579 24.27C33.0569 23.7984 35.3979 24.2649 37.3515 25.5843C39.3052 26.9026 40.6359 28.9157 41.0991 31.2512L41.2368 31.9469L41.2249 31.952C41.716 34.6424 41.9676 37.3734 41.9746 40.0811C41.9756 40.5608 41.5942 40.9503 41.123 40.9513H41.121L41.119 40.9492Z" fill="#254BEC"/>
<path d="M33.5023 65.9998C33.3366 65.9998 33.1679 65.9501 33.0212 65.8477C32.6318 65.5769 32.532 65.0374 32.7985 64.6419C36.7228 58.8148 39.2105 52.0486 39.9931 45.0775C40.047 44.6019 40.4703 44.2591 40.9385 44.3139C41.4067 44.3676 41.7441 44.7986 41.6902 45.2742C40.8766 52.5262 38.2891 59.5622 34.2081 65.6215C34.0424 65.867 33.7749 65.9998 33.5023 65.9998Z" fill="#254BEC"/>
<path d="M13.1234 59.2865C12.8838 59.2865 12.6462 59.1851 12.4775 58.9873C12.169 58.6253 12.207 58.0766 12.5644 57.7633C15.5792 55.1103 17.8732 51.6887 19.1979 47.8665C20.4707 44.1954 20.8071 40.2474 20.1842 36.3947H20.1772L20.0135 35.5703C19.3407 32.1841 20.0075 28.7341 21.8893 25.857C23.771 22.9799 26.6431 21.0197 29.9774 20.3361C31.1364 20.0988 32.3183 20.0248 33.4883 20.1171C33.9585 20.1546 34.3099 20.5714 34.2739 21.0491C34.237 21.5267 33.8277 21.8837 33.3565 21.8472C32.3433 21.7671 31.32 21.8309 30.3158 22.0368C27.4297 22.628 24.942 24.3257 23.3128 26.8164C21.8144 29.1083 21.2065 31.819 21.5718 34.5206L21.7116 35.2224C22.5891 39.6409 22.2776 44.2126 20.8111 48.4425C19.3876 52.5487 16.9238 56.2259 13.6844 59.0745C13.5227 59.2165 13.324 59.2865 13.1254 59.2865H13.1234Z" fill="#254BEC"/>
<path d="M38.5446 65.4177C38.3979 65.4177 38.2491 65.3792 38.1134 65.2981C37.7061 65.0557 37.5703 64.5243 37.8089 64.1105C43.6129 54.0596 45.5605 42.2299 43.2914 30.8007L43.2166 30.4245C42.5028 27.371 40.5651 24.7626 37.8548 23.2273C37.4425 22.994 37.2948 22.4657 37.5254 22.0468C37.755 21.628 38.2751 21.4779 38.6874 21.7122C41.9438 23.5579 44.2348 26.7442 44.9726 30.4549L45.1193 31.1922L45.1073 31.1962C47.2337 42.814 45.1752 54.7847 39.2824 64.9878C39.1236 65.2636 38.8381 65.4167 38.5446 65.4167V65.4177Z" fill="#254BEC"/>
<path d="M10.1205 56.5989C9.8729 56.5989 9.62832 56.4904 9.45961 56.2815C9.16112 55.9103 9.21403 55.3637 9.5794 55.0605C12.109 52.9552 14.0727 50.2049 15.2576 47.1057C15.4283 46.6585 15.9235 46.4374 16.3627 46.6109C16.802 46.7843 17.0206 47.2873 16.8499 47.7335C15.5581 51.1105 13.4188 54.1083 10.6615 56.4022C10.5028 56.534 10.3111 56.5989 10.1205 56.5989Z" fill="#254BEC"/>
<path d="M48.3517 49.5045C48.3058 49.5045 48.2589 49.5005 48.212 49.4924C47.7468 49.4143 47.4313 48.9681 47.5082 48.4955C48.5005 42.3692 48.3867 36.1486 47.1678 30.0071L47.1219 29.7738C46.2903 25.8897 44.0452 22.5472 40.7788 20.3425C37.4475 18.0942 33.4544 17.2981 29.5342 18.1013C25.6129 18.9045 22.2347 21.2106 20.0206 24.5947C17.9501 27.7598 17.1315 31.5151 17.6816 35.246L17.8343 36.0147C18.2536 38.1302 18.3524 40.276 18.1278 42.3956C18.0779 42.8722 17.6556 43.217 17.1874 43.1653C16.7183 43.1146 16.3788 42.6866 16.4297 42.21C16.6054 40.5519 16.5645 38.8735 16.309 37.2104L16.1402 36.3626C15.2588 31.9248 16.1313 27.4048 18.598 23.6343C21.0638 19.8638 24.8283 17.2951 29.1967 16.4006C33.5642 15.5061 38.0136 16.3925 41.7252 18.8974C45.4368 21.4022 47.9654 25.2255 48.8459 29.6633L48.9258 30.0679L48.9228 30.0709C50.1077 36.2875 50.1996 42.5791 49.1953 48.7774C49.1264 49.2023 48.764 49.5045 48.3537 49.5045H48.3517Z" fill="#254BEC"/>
<path d="M43.8394 63.8774C43.7136 63.8774 43.5858 63.849 43.466 63.7892C43.0417 63.5792 42.8661 63.06 43.0727 62.629C44.4893 59.6759 45.6293 56.5757 46.4619 53.4137C46.5836 52.9513 47.0518 52.6764 47.5081 52.8002C47.9633 52.9239 48.2338 53.3995 48.112 53.863C47.2515 57.1315 46.0725 60.3361 44.608 63.3896C44.4603 63.6979 44.1558 63.8774 43.8394 63.8774Z" fill="#254BEC"/>
<path d="M49.341 61.0824C49.2392 61.0824 49.1363 61.0641 49.0365 61.0245C48.5963 60.8532 48.3757 60.3522 48.5444 59.9039C52.2001 50.1968 53.0776 39.6651 51.088 29.4316L51.0441 29.2126C50.499 26.4704 49.4079 23.9422 47.7996 21.698C47.5221 21.3106 47.606 20.768 47.9873 20.4861C48.3687 20.2042 48.9027 20.2893 49.1803 20.6767C50.8644 23.0254 52.0294 25.6601 52.6443 28.5118L52.6483 28.5139L52.7202 28.8708C54.8295 39.4948 53.9381 50.4412 50.1406 60.5246C50.0108 60.8704 49.6864 61.0824 49.343 61.0824H49.341Z" fill="#254BEC"/>
<path d="M45.0323 18.3422C44.8416 18.3422 44.651 18.2783 44.4922 18.1454C40.0769 14.4723 34.3397 13.0221 28.7514 14.167C27.3128 14.4611 25.9133 14.9226 24.5915 15.5381C24.1623 15.7379 23.6561 15.5462 23.4595 15.1112C23.2628 14.6751 23.4515 14.161 23.8798 13.9612C25.3213 13.2898 26.8466 12.7868 28.4139 12.4664C34.5065 11.219 40.7617 12.8 45.5744 16.8038C45.9398 17.107 45.9927 17.6546 45.6942 18.0248C45.5255 18.2347 45.2799 18.3432 45.0333 18.3432L45.0323 18.3422Z" fill="#254BEC"/>
<path d="M7.50013 53.584C7.25056 53.584 7.00198 53.4735 6.83328 53.2595C6.53778 52.8863 6.59668 52.3397 6.96405 52.0395C11.1768 48.6017 13.2233 43.2106 12.4007 37.8347L12.2659 37.1563C10.7445 29.4906 13.5148 21.6625 19.4955 16.7289C19.8618 16.4266 20.3999 16.4834 20.6974 16.8556C20.9949 17.2278 20.939 17.7744 20.5726 18.0766C15.2847 22.4394 12.7331 29.2664 13.8053 36.0509L13.956 36.8105C15.1949 43.0473 12.9258 49.4018 8.03421 53.3934C7.87648 53.5222 7.6878 53.585 7.50013 53.585V53.584Z" fill="#254BEC"/>
<path d="M5.26696 50.2516C5.02437 50.2516 4.78379 50.1471 4.61508 49.9443C4.30961 49.5792 4.35453 49.0316 4.71491 48.7212C7.65384 46.191 9.07539 42.3008 8.49639 38.4634L8.39457 37.9493C8.13701 36.6563 7.97928 35.3288 7.92537 34.0033C7.90541 33.5246 8.27178 33.12 8.74297 33.1007C9.21415 33.0825 9.61247 33.4526 9.63144 33.9313C9.67137 34.9079 9.77219 35.8865 9.93092 36.8499L10.0807 37.6034C10.9981 42.2258 9.36489 46.9932 5.819 50.0457C5.65828 50.1836 5.46262 50.2516 5.26696 50.2516Z" fill="#254BEC"/>
<path d="M56.294 32.2378C55.8777 32.2378 55.5133 31.9285 55.4504 31.4975C55.3196 30.6051 55.1689 29.7116 55.0012 28.8364L54.9153 28.4196C53.7074 22.3349 50.2404 17.0919 45.1512 13.6571C40.0619 10.2222 33.9604 9.00632 27.9698 10.2334C23.3617 11.1776 19.2158 13.4928 15.9784 16.9286C12.8139 20.2884 10.7285 24.4757 9.94782 29.0382C9.86696 29.5108 9.42572 29.8272 8.96052 29.7451C8.49532 29.6629 8.18485 29.2137 8.26472 28.7421C9.10327 23.8389 11.3434 19.3392 14.7436 15.7299C18.2236 12.0365 22.6799 9.54786 27.6313 8.53374C34.0693 7.21538 40.626 8.52157 46.0955 12.213C51.3894 15.7857 55.0511 21.1788 56.4567 27.4522H56.4647L56.5934 28.0789C56.7991 29.1153 56.9828 30.1801 57.1385 31.2429C57.2084 31.7165 56.8859 32.1587 56.4197 32.2287C56.3768 32.2348 56.3349 32.2378 56.293 32.2378H56.294Z" fill="#254BEC"/>
<path d="M54.9463 56.5171C54.8734 56.5171 54.7996 56.508 54.7257 56.4877C54.2695 56.364 53.9989 55.8884 54.1207 55.4259C55.7439 49.2449 56.3649 42.8732 55.9685 36.4852C55.9386 36.0065 56.297 35.5948 56.7672 35.5644C57.2384 35.533 57.6437 35.897 57.6736 36.3757C58.0819 42.9502 57.442 49.5106 55.7709 55.8722C55.6691 56.2606 55.3237 56.5161 54.9463 56.5161V56.5171Z" fill="#254BEC"/>
<path d="M3.40116 46.5138C3.19352 46.5138 2.98488 46.4377 2.82016 46.2826C2.47475 45.957 2.45379 45.4074 2.77424 45.0565C4.25369 43.4359 4.91854 41.2069 4.58212 39.0397L4.52023 38.7436C3.01383 31.1539 4.50625 23.4212 8.72499 16.9724C12.9427 10.5236 19.3806 6.12945 26.8518 4.59914C29.9893 3.95619 33.1739 3.84869 36.3154 4.28071C36.7826 4.3446 37.1111 4.78169 37.0472 5.25731C36.9843 5.73192 36.553 6.06556 36.0858 6.00066C33.1339 5.59501 30.1401 5.69541 27.1892 6.30084C20.1653 7.73988 14.1127 11.8704 10.1475 17.9338C6.27221 23.8593 4.84367 30.9379 6.1035 37.9171L6.20533 38.3998C6.76137 41.2048 5.94777 44.1346 4.02808 46.2379C3.85937 46.4225 3.63076 46.5158 3.40116 46.5158V46.5138Z" fill="#254BEC"/>
<path d="M60.4128 48.985C60.3779 48.985 60.3419 48.983 60.306 48.9779C59.8378 48.9191 59.5054 48.485 59.5643 48.0094C60.3719 41.4186 60.1502 34.7518 58.9044 28.1823L58.7886 27.6256C56.8689 17.9498 49.9229 10.0651 40.6598 7.04805C40.2106 6.90201 39.963 6.41321 40.1068 5.95685C40.2505 5.5005 40.7317 5.249 41.1809 5.39503C50.7724 8.51954 58.0289 16.5524 60.29 26.4715L60.302 26.4695L60.4707 27.2808C61.8473 34.2133 62.1129 41.2594 61.2593 48.2224C61.2054 48.6615 60.8371 48.983 60.4128 48.983V48.985Z" fill="#254BEC"/>
</g>
<defs>
<clipPath id="clip0_339_60846">
<rect width="65" height="66" fill="white"/>
</clipPath>
</defs>
</svg>
