<svg width="170" height="195" viewBox="0 0 170 195" fill="none" xmlns="http://www.w3.org/2000/svg">
<g clip-path="url(#clip0_10_8978)">
<rect width="170" height="194.854" rx="16" fill="#CFCCCC"/>
<path d="M12.2461 128V119.434H13.6523V126.805H17.291V128H12.2461ZM20.0098 121.514V128H18.6328V121.514H20.0098ZM19.3301 119.029C19.541 119.029 19.7227 119.086 19.875 119.199C20.0312 119.312 20.1094 119.508 20.1094 119.785C20.1094 120.059 20.0312 120.254 19.875 120.371C19.7227 120.484 19.541 120.541 19.3301 120.541C19.1113 120.541 18.9258 120.484 18.7734 120.371C18.625 120.254 18.5508 120.059 18.5508 119.785C18.5508 119.508 18.625 119.312 18.7734 119.199C18.9258 119.086 19.1113 119.029 19.3301 119.029ZM23.8359 130.883C22.957 130.883 22.2832 130.725 21.8145 130.408C21.3457 130.092 21.1113 129.648 21.1113 129.078C21.1113 128.68 21.2363 128.342 21.4863 128.064C21.7363 127.791 22.0938 127.602 22.5586 127.496C22.3828 127.418 22.2305 127.297 22.1016 127.133C21.9766 126.965 21.9141 126.779 21.9141 126.576C21.9141 126.334 21.9824 126.127 22.1191 125.955C22.2559 125.783 22.4609 125.617 22.7344 125.457C22.3945 125.312 22.1211 125.078 21.9141 124.754C21.7109 124.426 21.6094 124.041 21.6094 123.6C21.6094 123.131 21.709 122.732 21.9082 122.404C22.1074 122.072 22.3984 121.82 22.7812 121.648C23.1641 121.473 23.627 121.385 24.1699 121.385C24.2871 121.385 24.4141 121.393 24.5508 121.408C24.6914 121.42 24.8203 121.436 24.9375 121.455C25.0586 121.471 25.1504 121.488 25.2129 121.508H27.457V122.275L26.3555 122.48C26.4609 122.629 26.5449 122.799 26.6074 122.99C26.6699 123.178 26.7012 123.383 26.7012 123.605C26.7012 124.277 26.4688 124.807 26.0039 125.193C25.543 125.576 24.9062 125.768 24.0938 125.768C23.8984 125.76 23.709 125.744 23.5254 125.721C23.3848 125.807 23.2773 125.902 23.2031 126.008C23.1289 126.109 23.0918 126.225 23.0918 126.354C23.0918 126.459 23.1289 126.545 23.2031 126.611C23.2773 126.674 23.3867 126.721 23.5312 126.752C23.6797 126.783 23.8594 126.799 24.0703 126.799H25.1895C25.9004 126.799 26.4434 126.949 26.8184 127.25C27.1934 127.551 27.3809 127.992 27.3809 128.574C27.3809 129.312 27.0762 129.881 26.4668 130.279C25.8574 130.682 24.9805 130.883 23.8359 130.883ZM23.8887 129.916C24.3691 129.916 24.7734 129.869 25.1016 129.775C25.4297 129.682 25.6777 129.547 25.8457 129.371C26.0137 129.199 26.0977 128.994 26.0977 128.756C26.0977 128.545 26.0449 128.383 25.9395 128.27C25.834 128.156 25.6758 128.078 25.4648 128.035C25.2539 127.992 24.9922 127.971 24.6797 127.971H23.6602C23.4062 127.971 23.1816 128.01 22.9863 128.088C22.791 128.17 22.6387 128.287 22.5293 128.439C22.4238 128.592 22.3711 128.775 22.3711 128.99C22.3711 129.287 22.502 129.516 22.7637 129.676C23.0293 129.836 23.4043 129.916 23.8887 129.916ZM24.1582 124.865C24.5605 124.865 24.8594 124.756 25.0547 124.537C25.25 124.314 25.3477 124.002 25.3477 123.6C25.3477 123.162 25.2461 122.834 25.043 122.615C24.8438 122.396 24.5469 122.287 24.1523 122.287C23.7656 122.287 23.4707 122.398 23.2676 122.621C23.0684 122.844 22.9688 123.174 22.9688 123.611C22.9688 124.006 23.0684 124.314 23.2676 124.537C23.4707 124.756 23.7676 124.865 24.1582 124.865ZM30.0176 118.883V121.174C30.0176 121.412 30.0098 121.645 29.9941 121.871C29.9824 122.098 29.9688 122.273 29.9531 122.398H30.0293C30.166 122.172 30.334 121.986 30.5332 121.842C30.7324 121.693 30.9551 121.582 31.2012 121.508C31.4512 121.434 31.7168 121.396 31.998 121.396C32.4941 121.396 32.916 121.48 33.2637 121.648C33.6113 121.812 33.877 122.068 34.0605 122.416C34.248 122.764 34.3418 123.215 34.3418 123.77V128H32.9648V124.027C32.9648 123.523 32.8613 123.146 32.6543 122.896C32.4473 122.643 32.127 122.516 31.6934 122.516C31.2754 122.516 30.9434 122.604 30.6973 122.779C30.4551 122.951 30.2812 123.207 30.1758 123.547C30.0703 123.883 30.0176 124.293 30.0176 124.777V128H28.6406V118.883H30.0176ZM38.6836 127.004C38.8633 127.004 39.041 126.988 39.2168 126.957C39.3926 126.922 39.5527 126.881 39.6973 126.834V127.877C39.5449 127.943 39.3477 128 39.1055 128.047C38.8633 128.094 38.6113 128.117 38.3496 128.117C37.9824 128.117 37.6523 128.057 37.3594 127.936C37.0664 127.811 36.834 127.598 36.6621 127.297C36.4902 126.996 36.4043 126.58 36.4043 126.049V122.562H35.5195V121.947L36.4688 121.461L36.9199 120.072H37.7871V121.514H39.6445V122.562H37.7871V126.031C37.7871 126.359 37.8691 126.604 38.0332 126.764C38.1973 126.924 38.4141 127.004 38.6836 127.004ZM45.375 126.148C45.375 126.574 45.2715 126.934 45.0645 127.227C44.8574 127.52 44.5547 127.742 44.1562 127.895C43.7617 128.043 43.2773 128.117 42.7031 128.117C42.25 128.117 41.8594 128.084 41.5312 128.018C41.207 127.955 40.9004 127.857 40.6113 127.725V126.535C40.9199 126.68 41.2656 126.805 41.6484 126.91C42.0352 127.016 42.4004 127.068 42.7441 127.068C43.1973 127.068 43.5234 126.998 43.7227 126.857C43.9219 126.713 44.0215 126.521 44.0215 126.283C44.0215 126.143 43.9805 126.018 43.8984 125.908C43.8203 125.795 43.6719 125.68 43.4531 125.562C43.2383 125.441 42.9219 125.297 42.5039 125.129C42.0938 124.965 41.748 124.801 41.4668 124.637C41.1855 124.473 40.9727 124.275 40.8281 124.045C40.6836 123.811 40.6113 123.512 40.6113 123.148C40.6113 122.574 40.8379 122.139 41.291 121.842C41.748 121.541 42.3516 121.391 43.1016 121.391C43.5 121.391 43.875 121.432 44.2266 121.514C44.582 121.592 44.9297 121.707 45.2695 121.859L44.8359 122.896C44.543 122.768 44.248 122.662 43.9512 122.58C43.6582 122.494 43.3594 122.451 43.0547 122.451C42.6992 122.451 42.4277 122.506 42.2402 122.615C42.0566 122.725 41.9648 122.881 41.9648 123.084C41.9648 123.236 42.0098 123.365 42.0996 123.471C42.1895 123.576 42.3438 123.682 42.5625 123.787C42.7852 123.893 43.0938 124.023 43.4883 124.18C43.875 124.328 44.209 124.484 44.4902 124.648C44.7754 124.809 44.9941 125.006 45.1465 125.24C45.2988 125.475 45.375 125.777 45.375 126.148Z" fill="#254BEC"/>
<path d="M136 0H135V83H136V0Z" fill="url(#paint0_linear_10_8978)"/>
<path d="M139 82H132V95H139V82Z" fill="#3C3B39"/>
<path d="M135.464 73.0069H135.536C135.536 72.8706 139 74.7783 139 76.972V82H132V76.9993C132 74.7783 135.464 73.0069 135.464 73.0069Z" fill="#232220"/>
<path d="M170 121.336C170 123.903 154.556 126 135.5 126C116.444 126 101 123.903 101 121.336C101 118.769 116.444 92 135.5 92C154.556 92 170 118.769 170 121.336Z" fill="url(#paint1_linear_10_8978)"/>
<path d="M170 121C170 123.752 154.556 126 135.5 126C116.444 126 101 123.752 101 121C101 118.248 116.444 116 135.5 116C154.556 116 170 118.248 170 121Z" fill="#797877"/>
<path d="M168 121.507C168 123.44 153.456 125 135.5 125C117.544 125 103 123.44 103 121.507C103 119.575 117.556 118 135.5 118C153.444 118 168 119.575 168 121.507Z" fill="#FFFDF7"/>
<path d="M135.494 118C132.551 118 129.707 118 127 118.131C128.54 120.415 131.756 122 135.494 122C139.232 122 142.448 120.415 144 118.131C141.33 118.044 138.437 118 135.494 118Z" fill="url(#paint2_radial_10_8978)"/>
<path style="mix-blend-mode:screen" opacity="0.05" d="M113.343 145.196C118.641 130.574 126.356 118.67 135.41 118.67C144.463 118.67 151.897 131.119 157.019 146.024C159.675 153.737 161.72 162.675 163.068 170.975C164.326 178.746 164.978 185.953 164.96 190.989C164.946 201.437 149.933 206.245 134.912 205.902C119.904 205.562 104.891 200.156 104.887 189.468C104.864 181.297 106.479 169.732 109.303 158.671C110.461 154.122 111.778 149.516 113.339 145.196H113.343Z" fill="url(#paint3_linear_10_8978)"/>
<path style="mix-blend-mode:screen" opacity="0.09" d="M114.483 144.148C119.429 130.082 126.808 118.677 135.378 118.677C143.947 118.677 151.024 131.115 155.861 145.707C158.367 153.249 160.299 162.503 161.566 171.09C162.747 179.173 163.34 186.666 163.317 191.42C163.267 201.288 149.11 205.433 134.894 204.8C120.718 204.167 106.525 198.917 106.511 188.572C106.47 180.115 108.018 168.398 110.642 157.687C111.755 153.135 112.963 148.468 114.479 144.155L114.483 144.148Z" fill="url(#paint4_linear_10_8978)"/>
<path style="mix-blend-mode:screen" opacity="0.14" d="M115.628 143.103C120.225 129.586 127.265 118.681 135.346 118.681C143.427 118.681 150.151 131.108 154.702 145.391C157.06 152.761 158.879 162.332 160.064 171.204C161.168 179.604 161.711 187.379 161.675 191.851C161.602 201.14 148.291 204.629 134.88 203.698C121.546 202.775 108.19 197.674 108.144 187.672C108.104 178.929 109.561 167.056 111.99 156.696C113.058 152.144 114.162 147.416 115.628 143.103Z" fill="url(#paint5_linear_10_8978)"/>
<path style="mix-blend-mode:screen" opacity="0.19" d="M116.768 142.054C121.03 129.098 127.718 118.688 135.319 118.688C142.92 118.688 149.282 131.103 153.549 145.074C155.761 152.277 157.462 162.16 158.566 171.314C159.593 180.031 160.082 188.084 160.032 192.282C159.933 200.987 147.481 203.82 134.862 202.592C122.374 201.379 109.827 196.43 109.769 186.768C109.714 177.739 111.09 165.709 113.33 155.701C114.348 151.144 115.352 146.363 116.768 142.05V142.054Z" fill="url(#paint6_linear_10_8978)"/>
<path style="mix-blend-mode:screen" opacity="0.24" d="M117.913 141.005C121.84 128.61 128.17 118.696 135.287 118.696C142.405 118.696 148.409 131.103 152.39 144.757C154.454 151.788 156.037 161.988 157.064 171.429C158.014 180.458 158.449 188.797 158.39 192.713C158.268 200.838 146.685 203.015 134.844 201.49C123.207 199.992 111.465 195.191 111.393 185.872C111.325 176.561 112.615 164.371 114.669 154.713C115.637 150.153 116.542 145.314 117.908 141.005H117.913Z" fill="url(#paint7_linear_10_8978)"/>
<path style="mix-blend-mode:screen" opacity="0.28" d="M119.053 139.961C122.664 128.125 128.623 118.704 135.256 118.704C141.889 118.704 147.535 131.099 151.232 144.445C153.15 151.304 154.616 161.816 155.562 171.547C156.435 180.893 156.815 189.51 156.747 193.147C156.603 200.693 145.898 202.218 134.826 200.392C124.048 198.611 113.103 193.956 113.022 184.976C112.936 175.379 114.139 163.029 116.017 153.729C116.936 149.165 117.741 144.269 119.053 139.961Z" fill="url(#paint8_linear_10_8978)"/>
<path style="mix-blend-mode:screen" opacity="0.33" d="M120.198 138.912C123.492 127.645 129.075 118.707 135.224 118.707C141.373 118.707 146.662 131.092 150.078 144.124C151.847 150.816 153.2 161.641 154.064 171.658C154.865 181.32 155.191 190.219 155.11 193.574C154.938 200.537 145.133 201.421 134.817 199.286C124.912 197.235 114.746 192.713 114.655 184.076C114.556 174.193 115.664 161.683 117.365 152.738C118.234 148.17 118.945 143.221 120.202 138.912H120.198Z" fill="url(#paint9_linear_10_8978)"/>
<path style="mix-blend-mode:screen" opacity="0.38" d="M121.338 137.867C124.329 127.165 129.528 118.715 135.192 118.715C140.857 118.715 145.789 131.088 148.92 143.808C150.54 150.328 151.779 161.469 152.562 171.772C153.286 181.747 153.558 190.928 153.463 194.009C153.268 200.392 144.373 200.64 134.794 198.188C125.768 195.877 116.375 191.473 116.28 183.18C116.162 173.011 117.175 160.341 118.705 151.75C119.519 147.175 120.139 142.176 121.343 137.867H121.338Z" fill="url(#paint10_linear_10_8978)"/>
<path style="mix-blend-mode:screen" opacity="0.43" d="M122.483 136.819C125.179 126.688 129.985 118.723 135.161 118.723C140.337 118.723 144.916 131.084 147.762 143.495C149.237 149.844 150.359 161.302 151.06 171.886C151.707 182.177 151.924 191.641 151.82 194.44C151.598 200.243 143.631 199.869 134.776 197.082C126.641 194.524 118.008 190.23 117.904 182.28C117.768 171.825 118.678 158.995 120.044 150.763C120.804 146.183 121.334 141.131 122.483 136.823V136.819Z" fill="url(#paint11_linear_10_8978)"/>
<path style="mix-blend-mode:screen" opacity="0.47" d="M123.623 135.77C126.035 126.211 130.437 118.73 135.134 118.73C139.83 118.73 144.047 131.08 146.608 143.179C147.934 149.356 148.943 161.13 149.558 172.001C150.128 182.608 150.295 192.35 150.178 194.871C149.933 200.091 142.907 199.111 134.758 195.98C127.519 193.197 119.641 188.991 119.533 181.381C119.379 170.64 120.18 157.645 121.388 149.771C122.089 145.184 122.537 140.083 123.623 135.77Z" fill="url(#paint12_linear_10_8978)"/>
<path style="mix-blend-mode:screen" opacity="0.52" d="M124.768 134.726C126.899 125.739 130.889 118.734 135.102 118.734C139.314 118.734 143.174 131.077 145.45 142.859C146.63 148.868 147.522 160.955 148.056 172.111C148.549 183.032 148.662 193.06 148.531 195.298C148.264 199.938 142.192 198.379 134.74 194.875C128.405 191.897 121.275 187.748 121.157 180.481C120.985 169.454 121.677 156.299 122.727 148.78C123.37 144.189 123.741 139.038 124.763 134.722L124.768 134.726Z" fill="url(#paint13_linear_10_8978)"/>
<path style="mix-blend-mode:screen" opacity="0.57" d="M125.908 133.677C127.777 125.27 131.342 118.742 135.07 118.742C139.011 118.742 142.3 131.073 144.291 142.546C145.323 148.384 146.101 160.783 146.554 172.23C146.97 183.466 147.029 193.773 146.888 195.736C146.594 199.793 141.486 197.685 134.722 193.78C129.283 190.638 122.904 186.517 122.786 179.589C122.591 168.276 123.17 154.957 124.075 147.796C124.655 143.198 124.953 137.997 125.912 133.681L125.908 133.677Z" fill="url(#paint14_linear_10_8978)"/>
<path style="mix-blend-mode:screen" opacity="0.62" d="M127.053 132.632C128.659 124.801 131.794 118.749 135.038 118.749C138.513 118.749 141.427 131.069 143.133 142.229C144.02 147.895 144.68 160.612 145.051 172.344C145.391 183.897 145.4 194.482 145.246 196.167C144.929 199.641 140.767 197.025 134.704 192.678C130.147 189.411 124.537 185.277 124.41 178.692C124.193 167.097 124.655 153.611 125.415 146.813C125.93 142.207 126.166 136.96 127.053 132.636V132.632Z" fill="url(#paint15_linear_10_8978)"/>
<path style="mix-blend-mode:screen" opacity="0.66" d="M128.197 131.584C129.555 124.332 132.247 118.757 135.007 118.757C138.016 118.757 140.554 131.065 141.975 141.913C142.712 147.411 143.26 160.44 143.549 172.455C143.816 184.32 143.766 195.187 143.599 196.594C143.26 199.484 140.011 196.407 134.681 191.569C130.98 188.21 126.161 184.027 126.035 177.785C125.795 165.904 126.134 152.254 126.754 145.814C127.197 141.204 127.378 135.908 128.193 131.58L128.197 131.584Z" fill="url(#paint16_linear_10_8978)"/>
<path style="mix-blend-mode:screen" opacity="0.71" d="M129.338 130.535C130.455 123.863 132.699 118.765 134.975 118.765C137.518 118.765 139.681 131.061 140.816 141.6C141.405 146.927 141.834 160.272 142.047 172.573C142.237 184.755 142.133 195.896 141.957 197.029C141.595 199.336 139.192 195.835 134.667 190.471C131.776 187.047 127.795 182.791 127.663 176.893C127.396 164.726 127.614 150.908 128.098 144.83C128.469 140.212 128.609 134.87 129.333 130.539L129.338 130.535Z" fill="url(#paint17_linear_10_8978)"/>
<path style="mix-blend-mode:screen" opacity="0.76" d="M130.482 129.49C131.369 123.397 133.156 118.768 134.948 118.768C137.025 118.768 138.812 131.054 139.663 141.28C140.106 146.435 140.418 160.097 140.549 172.683C140.663 185.182 140.509 196.598 140.319 197.46C139.934 199.179 138.278 195.286 134.654 189.369C132.523 185.887 129.428 181.552 129.297 175.993C129.003 163.54 129.089 149.558 129.446 143.842C129.736 139.217 129.849 133.833 130.482 129.49Z" fill="url(#paint18_linear_10_8978)"/>
<path style="mix-blend-mode:screen" opacity="0.81" d="M131.622 128.442C132.292 122.928 133.609 118.776 134.916 118.776C136.527 118.776 137.939 131.054 138.509 140.964C138.803 145.947 139.002 159.925 139.052 172.798C139.088 185.613 138.884 197.3 138.676 197.891C138.283 199.015 137.242 194.733 134.636 188.267C133.206 184.713 131.043 180.313 130.921 175.093C130.568 162.354 130.555 148.212 130.785 142.851C130.984 138.218 131.093 132.789 131.622 128.442Z" fill="url(#paint19_linear_10_8978)"/>
<path style="mix-blend-mode:screen" opacity="0.85" d="M132.767 127.397C133.229 122.463 134.061 118.784 134.885 118.784C136.029 118.784 137.066 131.05 137.351 140.651C137.5 145.467 137.581 159.757 137.545 172.916C137.504 186.044 137.351 198.047 137.029 198.325C136.817 198.905 136.088 194.142 134.613 187.165C133.839 183.501 132.672 179.074 132.545 174.197C132.174 161.172 132.012 146.866 132.129 141.863C132.233 137.223 132.36 131.752 132.767 127.397Z" fill="url(#paint20_linear_10_8978)"/>
<path style="mix-blend-mode:screen" opacity="0.9" d="M136.192 140.334C136.192 144.979 136.161 159.582 136.043 173.026C135.925 186.471 135.726 198.752 135.387 198.752C135.048 198.752 134.568 186.604 134.174 173.297C133.781 159.99 133.473 145.52 133.473 140.872C133.473 136.224 133.649 130.707 133.907 126.349C134.165 121.99 134.514 118.791 134.853 118.791C135.532 118.791 136.192 131.046 136.192 140.334Z" fill="url(#paint21_linear_10_8978)"/>
</g>
<defs>
<linearGradient id="paint0_linear_10_8978" x1="135" y1="41.5" x2="136" y2="41.5" gradientUnits="userSpaceOnUse">
<stop stop-color="#807F7E"/>
<stop offset="1" stop-color="#86857D"/>
</linearGradient>
<linearGradient id="paint1_linear_10_8978" x1="154.793" y1="100.815" x2="118.511" y2="124.056" gradientUnits="userSpaceOnUse">
<stop stop-color="#676765"/>
<stop offset="0.19" stop-color="#51514F"/>
<stop offset="0.39" stop-color="#41413F"/>
<stop offset="0.54" stop-color="#3C3B39"/>
<stop offset="0.56" stop-color="#3A3937"/>
<stop offset="0.8" stop-color="#2B2A28"/>
<stop offset="1" stop-color="#262523"/>
</linearGradient>
<radialGradient id="paint2_radial_10_8978" cx="0" cy="0" r="1" gradientUnits="userSpaceOnUse" gradientTransform="translate(135.481 116.676) scale(6.90431 8.08727)">
<stop offset="0.49" stop-color="white"/>
<stop offset="0.6" stop-color="#FFFFFA"/>
<stop offset="0.74" stop-color="#FFFFEA"/>
<stop offset="0.9" stop-color="#FFFFD0"/>
<stop offset="1" stop-color="#FFFFBC"/>
</radialGradient>
<linearGradient id="paint3_linear_10_8978" x1="134.925" y1="129.979" x2="134.925" y2="199.382" gradientUnits="userSpaceOnUse">
<stop stop-color="white"/>
<stop offset="0.09" stop-color="#F3F3F3"/>
<stop offset="0.24" stop-color="#D5D5D5"/>
<stop offset="0.44" stop-color="#A4A4A4"/>
<stop offset="0.69" stop-color="#606060"/>
<stop offset="0.96" stop-color="#0B0B0B"/>
<stop offset="1"/>
</linearGradient>
<linearGradient id="paint4_linear_10_8978" x1="134.916" y1="129.369" x2="134.916" y2="197.929" gradientUnits="userSpaceOnUse">
<stop stop-color="white"/>
<stop offset="0.09" stop-color="#F4F4F4"/>
<stop offset="0.23" stop-color="#DADADA"/>
<stop offset="0.42" stop-color="#AEAEAE"/>
<stop offset="0.64" stop-color="#717171"/>
<stop offset="0.89" stop-color="#242424"/>
<stop offset="1"/>
</linearGradient>
<linearGradient id="paint5_linear_10_8978" x1="134.912" y1="128.774" x2="134.912" y2="196.518" gradientUnits="userSpaceOnUse">
<stop stop-color="white"/>
<stop offset="0.08" stop-color="#F6F6F6"/>
<stop offset="0.22" stop-color="#DDDDDD"/>
<stop offset="0.4" stop-color="#B5B5B5"/>
<stop offset="0.6" stop-color="#7E7E7E"/>
<stop offset="0.83" stop-color="#393939"/>
<stop offset="1"/>
</linearGradient>
<linearGradient id="paint6_linear_10_8978" x1="134.903" y1="128.198" x2="134.903" y2="195.157" gradientUnits="userSpaceOnUse">
<stop stop-color="white"/>
<stop offset="0.09" stop-color="#F6F6F6"/>
<stop offset="0.22" stop-color="#E0E0E0"/>
<stop offset="0.38" stop-color="#BCBCBC"/>
<stop offset="0.57" stop-color="#898989"/>
<stop offset="0.79" stop-color="#484848"/>
<stop offset="1"/>
</linearGradient>
<linearGradient id="paint7_linear_10_8978" x1="134.894" y1="127.634" x2="134.894" y2="193.86" gradientUnits="userSpaceOnUse">
<stop stop-color="white"/>
<stop offset="0.09" stop-color="#F7F7F7"/>
<stop offset="0.22" stop-color="#E3E3E3"/>
<stop offset="0.37" stop-color="#C1C1C1"/>
<stop offset="0.55" stop-color="#929292"/>
<stop offset="0.75" stop-color="#575757"/>
<stop offset="0.96" stop-color="#0F0F0F"/>
<stop offset="1"/>
</linearGradient>
<linearGradient id="paint8_linear_10_8978" x1="134.889" y1="127.092" x2="134.889" y2="192.629" gradientUnits="userSpaceOnUse">
<stop stop-color="white"/>
<stop offset="0.09" stop-color="#F8F8F8"/>
<stop offset="0.22" stop-color="#E5E5E5"/>
<stop offset="0.37" stop-color="#C6C6C6"/>
<stop offset="0.54" stop-color="#9A9A9A"/>
<stop offset="0.72" stop-color="#636363"/>
<stop offset="0.91" stop-color="#202020"/>
<stop offset="1"/>
</linearGradient>
<linearGradient id="paint9_linear_10_8978" x1="134.88" y1="126.566" x2="134.88" y2="191.477" gradientUnits="userSpaceOnUse">
<stop stop-color="white"/>
<stop offset="0.09" stop-color="#F8F8F8"/>
<stop offset="0.22" stop-color="#E7E7E7"/>
<stop offset="0.36" stop-color="#C9C9C9"/>
<stop offset="0.52" stop-color="#A1A1A1"/>
<stop offset="0.7" stop-color="#6D6D6D"/>
<stop offset="0.88" stop-color="#2E2E2E"/>
<stop offset="1"/>
</linearGradient>
<linearGradient id="paint10_linear_10_8978" x1="134.876" y1="126.055" x2="134.876" y2="190.417" gradientUnits="userSpaceOnUse">
<stop stop-color="white"/>
<stop offset="0.09" stop-color="#F9F9F9"/>
<stop offset="0.22" stop-color="#E8E8E8"/>
<stop offset="0.36" stop-color="#CDCDCD"/>
<stop offset="0.51" stop-color="#A7A7A7"/>
<stop offset="0.68" stop-color="#767676"/>
<stop offset="0.85" stop-color="#3B3B3B"/>
<stop offset="1"/>
</linearGradient>
<linearGradient id="paint11_linear_10_8978" x1="134.867" y1="125.563" x2="134.867" y2="189.453" gradientUnits="userSpaceOnUse">
<stop stop-color="white"/>
<stop offset="0.1" stop-color="#F9F9F9"/>
<stop offset="0.22" stop-color="#E9E9E9"/>
<stop offset="0.36" stop-color="#D0D0D0"/>
<stop offset="0.51" stop-color="#ACACAC"/>
<stop offset="0.66" stop-color="#7E7E7E"/>
<stop offset="0.83" stop-color="#454545"/>
<stop offset="0.99" stop-color="#040404"/>
<stop offset="1"/>
</linearGradient>
<linearGradient id="paint12_linear_10_8978" x1="134.862" y1="125.083" x2="134.862" y2="188.587" gradientUnits="userSpaceOnUse">
<stop stop-color="white"/>
<stop offset="0.1" stop-color="#F9F9F9"/>
<stop offset="0.23" stop-color="#EBEBEB"/>
<stop offset="0.36" stop-color="#D2D2D2"/>
<stop offset="0.5" stop-color="#B0B0B0"/>
<stop offset="0.65" stop-color="#858585"/>
<stop offset="0.8" stop-color="#4F4F4F"/>
<stop offset="0.96" stop-color="#111111"/>
<stop offset="1"/>
</linearGradient>
<linearGradient id="paint13_linear_10_8978" x1="134.858" y1="124.618" x2="134.858" y2="187.821" gradientUnits="userSpaceOnUse">
<stop stop-color="white"/>
<stop offset="0.11" stop-color="#FAFAFA"/>
<stop offset="0.23" stop-color="#ECECEC"/>
<stop offset="0.36" stop-color="#D5D5D5"/>
<stop offset="0.5" stop-color="#B4B4B4"/>
<stop offset="0.64" stop-color="#8B8B8B"/>
<stop offset="0.79" stop-color="#585858"/>
<stop offset="0.93" stop-color="#1D1D1D"/>
<stop offset="1"/>
</linearGradient>
<linearGradient id="paint14_linear_10_8978" x1="134.853" y1="124.164" x2="134.853" y2="187.153" gradientUnits="userSpaceOnUse">
<stop stop-color="white"/>
<stop offset="0.11" stop-color="#FAFAFA"/>
<stop offset="0.24" stop-color="#EDEDED"/>
<stop offset="0.37" stop-color="#D7D7D7"/>
<stop offset="0.5" stop-color="#B8B8B8"/>
<stop offset="0.64" stop-color="#909090"/>
<stop offset="0.77" stop-color="#606060"/>
<stop offset="0.91" stop-color="#282828"/>
<stop offset="1"/>
</linearGradient>
<linearGradient id="paint15_linear_10_8978" x1="134.853" y1="123.721" x2="134.853" y2="186.581" gradientUnits="userSpaceOnUse">
<stop stop-color="white"/>
<stop offset="0.12" stop-color="#FAFAFA"/>
<stop offset="0.24" stop-color="#EEEEEE"/>
<stop offset="0.37" stop-color="#D9D9D9"/>
<stop offset="0.5" stop-color="#BBBBBB"/>
<stop offset="0.63" stop-color="#959595"/>
<stop offset="0.76" stop-color="#676767"/>
<stop offset="0.89" stop-color="#313131"/>
<stop offset="1"/>
</linearGradient>
<linearGradient id="paint16_linear_10_8978" x1="134.848" y1="123.287" x2="134.848" y2="186.097" gradientUnits="userSpaceOnUse">
<stop stop-color="white"/>
<stop offset="0.13" stop-color="#FBFBFB"/>
<stop offset="0.25" stop-color="#EFEFEF"/>
<stop offset="0.38" stop-color="#DADADA"/>
<stop offset="0.5" stop-color="#BEBEBE"/>
<stop offset="0.63" stop-color="#9A9A9A"/>
<stop offset="0.75" stop-color="#6E6E6E"/>
<stop offset="0.88" stop-color="#3A3A3A"/>
<stop offset="1"/>
</linearGradient>
<linearGradient id="paint17_linear_10_8978" x1="134.853" y1="122.856" x2="134.853" y2="185.685" gradientUnits="userSpaceOnUse">
<stop stop-color="white"/>
<stop offset="0.13" stop-color="#FBFBFB"/>
<stop offset="0.26" stop-color="#EFEFEF"/>
<stop offset="0.38" stop-color="#DCDCDC"/>
<stop offset="0.51" stop-color="#C1C1C1"/>
<stop offset="0.63" stop-color="#9E9E9E"/>
<stop offset="0.75" stop-color="#737373"/>
<stop offset="0.87" stop-color="#414141"/>
<stop offset="0.98" stop-color="#080808"/>
<stop offset="1"/>
</linearGradient>
<linearGradient id="paint18_linear_10_8978" x1="134.853" y1="122.429" x2="134.853" y2="185.35" gradientUnits="userSpaceOnUse">
<stop stop-color="white"/>
<stop offset="0.14" stop-color="#FBFBFB"/>
<stop offset="0.27" stop-color="#F0F0F0"/>
<stop offset="0.39" stop-color="#DDDDDD"/>
<stop offset="0.51" stop-color="#C3C3C3"/>
<stop offset="0.63" stop-color="#A2A2A2"/>
<stop offset="0.74" stop-color="#797979"/>
<stop offset="0.86" stop-color="#484848"/>
<stop offset="0.97" stop-color="#111111"/>
<stop offset="1"/>
</linearGradient>
<linearGradient id="paint19_linear_10_8978" x1="134.839" y1="122.002" x2="134.839" y2="185.079" gradientUnits="userSpaceOnUse">
<stop stop-color="white"/>
<stop offset="0.15" stop-color="#FBFBFB"/>
<stop offset="0.28" stop-color="#F1F1F1"/>
<stop offset="0.4" stop-color="#DFDFDF"/>
<stop offset="0.52" stop-color="#C6C6C6"/>
<stop offset="0.63" stop-color="#A5A5A5"/>
<stop offset="0.74" stop-color="#7E7E7E"/>
<stop offset="0.85" stop-color="#4F4F4F"/>
<stop offset="0.95" stop-color="#1A1A1A"/>
<stop offset="1"/>
</linearGradient>
<linearGradient id="paint20_linear_10_8978" x1="134.821" y1="121.579" x2="134.821" y2="184.888" gradientUnits="userSpaceOnUse">
<stop stop-color="white"/>
<stop offset="0.16" stop-color="#FBFBFB"/>
<stop offset="0.29" stop-color="#F1F1F1"/>
<stop offset="0.41" stop-color="#E0E0E0"/>
<stop offset="0.52" stop-color="#C8C8C8"/>
<stop offset="0.63" stop-color="#A9A9A9"/>
<stop offset="0.74" stop-color="#828282"/>
<stop offset="0.84" stop-color="#555555"/>
<stop offset="0.94" stop-color="#222222"/>
<stop offset="1"/>
</linearGradient>
<linearGradient id="paint21_linear_10_8978" x1="134.83" y1="121.155" x2="134.83" y2="184.763" gradientUnits="userSpaceOnUse">
<stop stop-color="white"/>
<stop offset="0.17" stop-color="#FBFBFB"/>
<stop offset="0.3" stop-color="#F2F2F2"/>
<stop offset="0.42" stop-color="#E1E1E1"/>
<stop offset="0.53" stop-color="#CACACA"/>
<stop offset="0.64" stop-color="#ACACAC"/>
<stop offset="0.74" stop-color="#878787"/>
<stop offset="0.84" stop-color="#5B5B5B"/>
<stop offset="0.93" stop-color="#292929"/>
<stop offset="1"/>
</linearGradient>
<clipPath id="clip0_10_8978">
<rect width="170" height="194.854" rx="16" fill="white"/>
</clipPath>
</defs>
</svg>
