<svg width="483" height="343" viewBox="0 0 483 343" fill="none" xmlns="http://www.w3.org/2000/svg">
<path d="M166.547 58.514L226.914 11.8152C232.984 7.11968 241.403 6.92127 247.687 11.3256L315.058 58.5427C319.736 61.8215 322.522 67.1756 322.522 72.8885V162.314C322.522 171.989 314.679 179.833 305.004 179.833H246.609C243.106 115.015 187.242 94.4309 159.748 92.2411V72.3702C159.748 66.9481 162.259 61.8316 166.547 58.514Z" stroke="#254BEC" stroke-width="14.5986"/>
<path d="M153.179 119.249C161.997 119.249 170.73 120.985 178.877 124.36C187.025 127.735 194.427 132.682 200.663 138.917C206.899 145.153 211.846 152.556 215.22 160.703C218.595 168.851 220.332 177.583 220.332 186.402" stroke="#254BEC" stroke-width="14.5986"/>
<path d="M153.179 149.906C157.971 149.906 162.717 150.85 167.145 152.684C171.573 154.518 175.596 157.206 178.985 160.595C182.374 163.984 185.063 168.007 186.897 172.435C188.731 176.863 189.675 181.609 189.675 186.402" stroke="#254BEC" stroke-width="14.5986"/>
<path d="M154.638 177.643C155.597 177.643 156.546 177.832 157.432 178.198C158.317 178.565 159.122 179.103 159.8 179.781C160.478 180.459 161.015 181.263 161.382 182.149C161.749 183.034 161.938 183.984 161.938 184.942" stroke="#254BEC" stroke-width="14.5986"/>
<path fill-rule="evenodd" clip-rule="evenodd" d="M234.678 15.888C237.617 15.0014 240.876 15.4656 243.498 17.303L310.868 64.5201C313.597 66.4328 315.222 69.556 315.222 72.8885V162.314C315.222 164.875 314.28 167.216 312.724 169.01C318.516 165.523 324.516 158.214 329.821 150.441V72.8885C329.821 64.7952 325.875 57.2103 319.247 52.5653L255.003 7.53954C243.155 6.79335 238.987 11.2807 235.872 14.634C235.461 15.0767 235.068 15.4996 234.678 15.888Z" fill="url(#paint0_linear_355_149085)"/>
<path d="M40.2521 302.498C40.2521 305.866 39.4232 308.767 37.7655 311.202C36.1336 313.636 33.7765 315.501 30.6941 316.796C27.6377 318.092 23.9855 318.739 19.7375 318.739C17.6653 318.739 15.6838 318.623 13.7929 318.389C11.9021 318.156 10.1148 317.82 8.43118 317.379C6.77343 316.913 5.25815 316.356 3.88534 315.709V306.928C6.19063 307.938 8.76791 308.857 11.6172 309.686C14.4664 310.489 17.3674 310.891 20.3203 310.891C22.7292 310.891 24.7237 310.58 26.3037 309.958C27.9097 309.311 29.1012 308.404 29.8782 307.239C30.6553 306.047 31.0438 304.661 31.0438 303.081C31.0438 301.398 30.5905 299.973 29.684 298.807C28.7774 297.642 27.4046 296.58 25.5655 295.621C23.7523 294.637 21.473 293.588 18.7273 292.474C16.8624 291.723 15.0751 290.868 13.3656 289.91C11.6819 288.952 10.1796 287.825 8.85856 286.53C7.53755 285.235 6.48851 283.706 5.71144 281.945C4.96028 280.158 4.5847 278.06 4.5847 275.651C4.5847 272.439 5.34881 269.693 6.87704 267.414C8.43118 265.134 10.607 263.386 13.4044 262.169C16.2277 260.951 19.5173 260.343 23.2732 260.343C26.2519 260.343 29.0494 260.653 31.6655 261.275C34.3075 261.897 36.8977 262.777 39.4362 263.917L36.4833 271.416C34.1521 270.457 31.8857 269.693 29.684 269.123C27.5082 268.554 25.2806 268.269 23.0012 268.269C21.0326 268.269 19.3619 268.567 17.9891 269.162C16.6163 269.758 15.5672 270.6 14.842 271.688C14.1426 272.75 13.7929 274.019 13.7929 275.495C13.7929 277.153 14.1944 278.552 14.9974 279.692C15.8263 280.805 17.0955 281.828 18.805 282.761C20.5405 283.693 22.7681 284.73 25.4878 285.869C28.622 287.164 31.2769 288.524 33.4527 289.949C35.6544 291.373 37.3381 293.083 38.5037 295.077C39.6693 297.046 40.2521 299.52 40.2521 302.498ZM98.8818 274.136C103.7 274.136 107.326 275.379 109.761 277.865C112.221 280.352 113.452 284.341 113.452 289.832V317.962H104.321V291.464C104.321 288.2 103.687 285.74 102.417 284.082C101.148 282.424 99.2185 281.595 96.6283 281.595C93.002 281.595 90.3858 282.761 88.7799 285.092C87.1999 287.397 86.4099 290.752 86.4099 295.155V317.962H77.2793V291.464C77.2793 289.288 76.9944 287.475 76.4245 286.025C75.8806 284.548 75.0388 283.447 73.8991 282.722C72.7594 281.971 71.3218 281.595 69.5864 281.595C67.0738 281.595 65.0664 282.165 63.5641 283.305C62.0877 284.445 61.0257 286.128 60.3781 288.356C59.7306 290.558 59.4068 293.264 59.4068 296.476V317.962H50.2762V274.951H57.3864L58.6686 280.741H59.1737C60.0543 279.238 61.1422 278.008 62.4373 277.05C63.7584 276.065 65.2218 275.34 66.8278 274.874C68.4337 274.382 70.1044 274.136 71.8398 274.136C75.0517 274.136 77.7585 274.705 79.9602 275.845C82.1619 276.959 83.8067 278.668 84.8946 280.974H85.5939C86.9408 278.643 88.8188 276.92 91.2277 275.806C93.6366 274.692 96.1879 274.136 98.8818 274.136ZM143.058 274.136C148.498 274.136 152.603 275.34 155.375 277.749C158.172 280.158 159.571 283.914 159.571 289.016V317.962H153.082L151.334 311.862H151.023C149.806 313.416 148.549 314.698 147.254 315.709C145.959 316.719 144.457 317.47 142.747 317.962C141.064 318.48 139.004 318.739 136.57 318.739C134.005 318.739 131.713 318.273 129.692 317.34C127.672 316.382 126.079 314.932 124.914 312.989C123.748 311.046 123.165 308.585 123.165 305.607C123.165 301.177 124.81 297.849 128.099 295.621C131.415 293.394 136.414 292.163 143.097 291.93L150.557 291.658V289.405C150.557 286.426 149.857 284.302 148.459 283.033C147.086 281.764 145.143 281.129 142.631 281.129C140.481 281.129 138.396 281.44 136.375 282.062C134.355 282.683 132.386 283.447 130.47 284.354L127.517 277.904C129.615 276.79 131.998 275.884 134.666 275.185C137.36 274.485 140.157 274.136 143.058 274.136ZM150.518 297.409L144.962 297.603C140.403 297.758 137.204 298.535 135.365 299.934C133.526 301.333 132.606 303.25 132.606 305.684C132.606 307.808 133.241 309.363 134.51 310.347C135.78 311.305 137.45 311.784 139.522 311.784C142.682 311.784 145.299 310.891 147.371 309.104C149.469 307.29 150.518 304.635 150.518 301.139V297.409ZM194.15 274.136C194.875 274.136 195.665 274.174 196.52 274.252C197.375 274.33 198.113 274.433 198.735 274.563L197.88 283.111C197.336 282.955 196.663 282.839 195.86 282.761C195.083 282.683 194.383 282.644 193.762 282.644C192.13 282.644 190.576 282.916 189.099 283.46C187.623 283.978 186.315 284.781 185.175 285.869C184.035 286.931 183.142 288.265 182.494 289.871C181.847 291.477 181.523 293.342 181.523 295.466V317.962H172.353V274.951H179.502L180.746 282.528H181.173C182.028 281 183.09 279.601 184.359 278.332C185.628 277.062 187.079 276.052 188.711 275.301C190.368 274.524 192.182 274.136 194.15 274.136ZM222.707 311.357C223.899 311.357 225.077 311.253 226.243 311.046C227.409 310.813 228.471 310.541 229.429 310.23V317.146C228.419 317.587 227.111 317.962 225.505 318.273C223.899 318.584 222.228 318.739 220.493 318.739C218.058 318.739 215.869 318.338 213.927 317.535C211.984 316.706 210.443 315.294 209.303 313.3C208.163 311.305 207.593 308.547 207.593 305.024V281.906H201.727V277.827L208.021 274.602L211.013 265.394H216.763V274.951H229.079V281.906H216.763V304.907C216.763 307.083 217.307 308.702 218.395 309.764C219.483 310.826 220.92 311.357 222.707 311.357Z" fill="#254BEC"/>
<path d="M304.571 317.962H295.285V292.319H269.098V317.962H259.774V261.158H269.098V284.393H295.285V261.158H304.571V317.962ZM356.751 296.36C356.751 299.934 356.285 303.107 355.353 305.879C354.42 308.65 353.06 310.994 351.273 312.911C349.486 314.802 347.336 316.253 344.823 317.263C342.311 318.247 339.475 318.739 336.315 318.739C333.362 318.739 330.655 318.247 328.194 317.263C325.734 316.253 323.597 314.802 321.783 312.911C319.996 310.994 318.61 308.65 317.626 305.879C316.642 303.107 316.15 299.934 316.15 296.36C316.15 291.62 316.966 287.605 318.597 284.315C320.255 281 322.612 278.474 325.669 276.739C328.725 275.003 332.365 274.136 336.587 274.136C340.55 274.136 344.046 275.003 347.077 276.739C350.108 278.474 352.478 281 354.187 284.315C355.897 287.631 356.751 291.645 356.751 296.36ZM325.552 296.36C325.552 299.494 325.928 302.175 326.679 304.402C327.456 306.63 328.648 308.339 330.253 309.531C331.859 310.697 333.932 311.279 336.47 311.279C339.008 311.279 341.081 310.697 342.687 309.531C344.292 308.339 345.471 306.63 346.222 304.402C346.973 302.175 347.349 299.494 347.349 296.36C347.349 293.225 346.973 290.57 346.222 288.395C345.471 286.193 344.292 284.522 342.687 283.383C341.081 282.217 338.995 281.634 336.431 281.634C332.649 281.634 329.891 282.903 328.155 285.442C326.42 287.98 325.552 291.62 325.552 296.36ZM415.847 274.136C420.665 274.136 424.292 275.379 426.726 277.865C429.187 280.352 430.417 284.341 430.417 289.832V317.962H421.287V291.464C421.287 288.2 420.652 285.74 419.383 284.082C418.114 282.424 416.184 281.595 413.594 281.595C409.968 281.595 407.351 282.761 405.746 285.092C404.166 287.397 403.375 290.752 403.375 295.155V317.962H394.245V291.464C394.245 289.288 393.96 287.475 393.39 286.025C392.846 284.548 392.004 283.447 390.865 282.722C389.725 281.971 388.287 281.595 386.552 281.595C384.039 281.595 382.032 282.165 380.53 283.305C379.053 284.445 377.991 286.128 377.344 288.356C376.696 290.558 376.372 293.264 376.372 296.476V317.962H367.242V274.951H374.352L375.634 280.741H376.139C377.02 279.238 378.108 278.008 379.403 277.05C380.724 276.065 382.187 275.34 383.793 274.874C385.399 274.382 387.07 274.136 388.805 274.136C392.017 274.136 394.724 274.705 396.926 275.845C399.128 276.959 400.772 278.668 401.86 280.974H402.56C403.906 278.643 405.784 276.92 408.193 275.806C410.602 274.692 413.154 274.136 415.847 274.136ZM460.296 274.136C464.129 274.136 467.419 274.926 470.164 276.506C472.91 278.086 475.021 280.326 476.498 283.227C477.974 286.128 478.712 289.599 478.712 293.64V298.535H450C450.103 302.706 451.217 305.918 453.341 308.171C455.491 310.425 458.495 311.551 462.355 311.551C465.101 311.551 467.561 311.292 469.737 310.774C471.939 310.23 474.205 309.44 476.536 308.404V315.825C474.386 316.835 472.198 317.574 469.97 318.04C467.743 318.506 465.075 318.739 461.966 318.739C457.744 318.739 454.027 317.923 450.815 316.291C447.629 314.634 445.13 312.173 443.317 308.909C441.529 305.646 440.636 301.592 440.636 296.748C440.636 291.93 441.452 287.838 443.084 284.471C444.715 281.103 447.008 278.539 449.961 276.778C452.914 275.016 456.359 274.136 460.296 274.136ZM460.296 281.013C457.421 281.013 455.089 281.945 453.302 283.81C451.541 285.675 450.505 288.408 450.194 292.008H469.776C469.75 289.858 469.387 287.954 468.688 286.297C468.015 284.639 466.978 283.344 465.58 282.411C464.207 281.479 462.446 281.013 460.296 281.013Z" fill="#03091F"/>
<defs>
<linearGradient id="paint0_linear_355_149085" x1="331.967" y1="22.6408" x2="193.259" y2="70.0406" gradientUnits="userSpaceOnUse">
<stop stop-color="#00BAE3"/>
<stop offset="1" stop-color="#00E8FF"/>
</linearGradient>
</defs>
</svg>
