<svg width="25" height="20" viewBox="0 0 25 20" fill="none" xmlns="http://www.w3.org/2000/svg">
<path fill-rule="evenodd" clip-rule="evenodd" d="M6.72401 2.19719C6.62327 2.29561 6.51506 2.40346 6.37057 2.54898C6.37057 2.54898 3.99016 4.93382 3.98221 4.94071C3.90836 5.01084 3.84691 5.07082 3.7832 5.13423C3.75392 5.16353 3.72788 5.1893 3.67235 5.24399C3.62461 5.29101 3.6025 5.31284 3.57499 5.34025L1.42271 7.49751C1.37652 7.54549 1.33688 7.58589 1.28592 7.63714L1.22789 7.69554C1.16218 7.76146 1.11019 7.8151 1.03671 7.89182C0.868164 8.05834 0.697255 8.24664 0.536323 8.44412C0.386791 8.60375 0.266071 8.78828 0.179639 8.98949L0.156802 9.05036C0.00111794 9.5329 0.00111794 10.0523 0.156802 10.5348L0.180644 10.598C0.267731 10.7987 0.389093 10.9826 0.539191 11.1414C0.699445 11.3385 0.87023 11.5269 1.0508 11.7056C1.08879 11.7466 1.14476 11.8038 1.21952 11.8787C1.27116 11.9304 1.29338 11.9527 1.32106 11.9806C1.35682 12.0167 1.38772 12.0483 1.41642 12.0781L3.57436 14.2425C3.68129 14.3496 3.72914 14.3971 3.81477 14.4808C3.88516 14.5504 3.92682 14.591 4.00395 14.6623L6.3727 17.0373C6.55024 17.215 6.62989 17.2944 6.73028 17.3932C6.86078 17.5238 6.9468 17.6083 7.08117 17.7398C7.13179 17.7932 7.15077 17.8129 7.17672 17.8371C7.47997 18.1422 7.84986 18.4118 8.25489 18.6188C8.66032 18.8232 9.09017 18.9652 9.5338 19.0419C9.94945 19.1105 10.3642 19.1471 10.78 19.1523C10.9563 19.1562 11.1332 19.1586 11.308 19.1593L11.7242 19.1593H19.4677C19.6285 19.1593 19.7878 19.157 20.0086 19.1522C20.422 19.1471 20.8409 19.1103 21.2553 19.0422C21.7077 18.964 22.1406 18.8206 22.5453 18.6159C22.9555 18.4082 23.3297 18.1366 23.6543 17.8111C23.9774 17.4863 24.2476 17.1138 24.4558 16.7064C24.6619 16.2957 24.8045 15.8616 24.8813 15.4135C24.9499 14.9935 24.9864 14.5744 24.9914 14.1543C24.9945 14.0512 24.996 13.9603 24.9984 13.758L25 13.6285L25.0001 12.9901V5.92283L24.9989 5.81103C24.9975 5.68634 24.9969 5.63189 24.9957 5.56201C24.9946 5.49649 24.9932 5.43638 24.9915 5.37847C24.9868 4.97459 24.9506 4.55918 24.8836 4.14824C24.8063 3.6984 24.6649 3.26791 24.463 2.86508C24.2538 2.45579 23.9854 2.08605 23.665 1.76432C23.3445 1.44112 22.973 1.17069 22.5659 0.964324C22.1642 0.760888 21.7347 0.618443 21.2914 0.54154C20.8738 0.473539 20.459 0.437263 20.0432 0.431812C19.8549 0.427247 19.6812 0.424812 19.5142 0.424812C19.3456 0.42308 19.2061 0.422729 18.893 0.422729H11.9298C11.619 0.422729 11.4786 0.423082 11.3024 0.424846C11.1427 0.424812 10.9695 0.427231 10.7709 0.431947C10.363 0.43731 9.94885 0.473592 9.53906 0.540363C9.08835 0.61857 8.65854 0.76086 8.25651 0.963805C7.84846 1.17194 7.47838 1.4419 7.1575 1.76493C7.14263 1.77958 7.13174 1.79104 7.04089 1.88813C6.92819 1.99513 6.82455 2.09619 6.72401 2.19719ZM4.02907 4.90135L4.03161 4.89937C4.02851 4.90171 4.02635 4.90333 4.02368 4.90555L4.02907 4.90135ZM7.35344 16.0561L4.95935 13.6557C4.95935 13.6557 4.91159 13.6121 4.90662 13.608C4.86968 13.5726 4.83791 13.5415 4.75853 13.463C4.70124 13.4073 4.65667 13.363 4.55518 13.2614L2.40589 11.1058C2.38068 11.0795 2.34557 11.0436 2.30574 11.0034C2.27615 10.9735 2.25226 10.9495 2.19991 10.8971C2.13409 10.8312 2.08684 10.7829 2.04278 10.7361C1.87448 10.5689 1.73201 10.4111 1.59873 10.2456L1.55305 10.1943C1.51779 10.1585 1.48826 10.1175 1.46545 10.0728C1.4134 9.88913 1.41354 9.69457 1.46584 9.51099C1.48869 9.46548 1.51838 9.42369 1.55393 9.3871L1.59593 9.33974C1.72994 9.17393 1.87302 9.01569 2.02451 8.86572C2.10568 8.78133 2.15259 8.73292 2.18807 8.69692L2.2353 8.6498L2.26849 8.61651C2.32488 8.5598 2.36998 8.51382 2.41327 8.46867L4.55442 6.32275C4.57792 6.29935 4.59783 6.27969 4.6541 6.22427C4.70274 6.17636 4.7309 6.14849 4.76211 6.11724C4.81041 6.06918 4.85791 6.0227 4.90456 5.97792C4.91479 5.96936 4.9267 5.95831 4.96051 5.92692L4.96068 5.92677L4.96073 5.92672L7.35271 3.52876C7.49392 3.38656 7.59776 3.28305 7.6994 3.18367C7.79714 3.08556 7.89149 2.99357 7.99125 2.89884C8.01337 2.87817 8.02658 2.86434 8.08765 2.79947L8.13592 2.74842C8.35794 2.52496 8.60864 2.34208 8.8833 2.20197C9.16065 2.06198 9.45994 1.9629 9.76884 1.90927C10.104 1.8547 10.4498 1.8244 10.7965 1.81981C10.9922 1.81521 11.1547 1.81293 11.3093 1.81293C11.4863 1.8112 11.6236 1.81085 11.9298 1.81085H18.893C19.2014 1.81085 19.3378 1.8112 19.5072 1.8129C19.669 1.81293 19.832 1.81522 20.0174 1.81968C20.3724 1.82437 20.7189 1.85467 21.0618 1.91048C21.3627 1.96271 21.661 2.06166 21.9399 2.20289C22.2144 2.34206 22.4651 2.5246 22.6822 2.74342C22.9019 2.96406 23.0851 3.21649 23.2263 3.49262C23.3645 3.76841 23.463 4.06832 23.5162 4.37779C23.5711 4.71448 23.6012 5.06052 23.6053 5.40736C23.6071 5.47148 23.6084 5.52586 23.6094 5.58588C23.6105 5.65177 23.6112 5.70427 23.6125 5.82596L23.6136 5.93116L23.6136 6.54506V13.6132L23.612 13.7416C23.6097 13.9357 23.6083 14.0211 23.6052 14.1256C23.6008 14.4884 23.5704 14.8382 23.5138 15.1842C23.4611 15.4917 23.3615 15.795 23.2191 16.0788C23.0787 16.3535 22.8936 16.6087 22.6725 16.8309C22.4526 17.0515 22.1983 17.236 21.9198 17.377C21.638 17.5196 21.3363 17.6195 21.0249 17.6734C20.6848 17.7293 20.3353 17.76 19.985 17.7643C19.7668 17.769 19.6164 17.7712 19.4677 17.7712H11.3107C11.1473 17.7705 10.9787 17.7683 10.8039 17.7644C10.4513 17.7599 10.106 17.7295 9.76441 17.6732C9.46095 17.6207 9.16171 17.5218 8.88178 17.3807C8.60997 17.2418 8.3587 17.0586 8.14058 16.8396C8.12752 16.8268 8.10942 16.8081 8.08651 16.7839L8.08355 16.7808C8.02907 16.7233 8.01676 16.7103 8.00387 16.6979L7.98828 16.6833C7.90903 16.6088 7.83158 16.5327 7.70629 16.4073C7.60544 16.308 7.52772 16.2306 7.35344 16.0561ZM12.3253 13.4642C12.2691 13.52 12.2017 13.5655 12.1256 13.5971C11.8933 13.6934 11.6258 13.6402 11.448 13.4621C11.3309 13.3453 11.2652 13.1866 11.2652 13.0212C11.2652 12.8557 11.3309 12.6971 11.448 12.5803V12.5817C11.4814 12.5482 11.5181 12.5191 11.557 12.4946L14.2556 9.78946L11.448 6.98162L11.4569 6.97263C11.401 6.91625 11.3555 6.84868 11.3239 6.7724C11.2277 6.53975 11.2809 6.27196 11.4587 6.09391C11.5754 5.97631 11.7342 5.91019 11.8998 5.91019C12.0654 5.91019 12.2241 5.97631 12.3409 6.09391H12.3381C12.3682 6.12409 12.3948 6.15685 12.4177 6.19158L15.1338 8.90917L17.8575 6.17885C17.8786 6.14835 17.9026 6.11932 17.9298 6.09217C18.1076 5.91411 18.3751 5.86083 18.6074 5.95719C18.8398 6.05356 18.9913 6.28057 18.9913 6.53239C18.9913 6.69984 18.9243 6.85633 18.8111 6.97073L18.8181 6.9778L16.0134 9.78931L18.7276 12.505C18.761 12.5274 18.7924 12.5531 18.8213 12.582L18.8199 12.5834C18.9977 12.7615 19.0509 13.0292 18.9547 13.2619C18.8585 13.4945 18.6317 13.6462 18.3802 13.6462C18.2129 13.6462 18.0566 13.5791 17.9424 13.4658L17.937 13.4711L15.1355 10.6694L12.3364 13.4753L12.3253 13.4642Z" fill="black"/>
</svg>
