<svg width="170" height="195" viewBox="0 0 170 195" fill="none" xmlns="http://www.w3.org/2000/svg">
<g clip-path="url(#clip0_10_6136)">
<rect width="170" height="194.854" rx="16" fill="#202124"/>
<path d="M12.2461 128V119.434H13.6523V126.805H17.291V128H12.2461ZM20.0098 121.514V128H18.6328V121.514H20.0098ZM19.3301 119.029C19.541 119.029 19.7227 119.086 19.875 119.199C20.0312 119.312 20.1094 119.508 20.1094 119.785C20.1094 120.059 20.0312 120.254 19.875 120.371C19.7227 120.484 19.541 120.541 19.3301 120.541C19.1113 120.541 18.9258 120.484 18.7734 120.371C18.625 120.254 18.5508 120.059 18.5508 119.785C18.5508 119.508 18.625 119.312 18.7734 119.199C18.9258 119.086 19.1113 119.029 19.3301 119.029ZM23.8359 130.883C22.957 130.883 22.2832 130.725 21.8145 130.408C21.3457 130.092 21.1113 129.648 21.1113 129.078C21.1113 128.68 21.2363 128.342 21.4863 128.064C21.7363 127.791 22.0938 127.602 22.5586 127.496C22.3828 127.418 22.2305 127.297 22.1016 127.133C21.9766 126.965 21.9141 126.779 21.9141 126.576C21.9141 126.334 21.9824 126.127 22.1191 125.955C22.2559 125.783 22.4609 125.617 22.7344 125.457C22.3945 125.312 22.1211 125.078 21.9141 124.754C21.7109 124.426 21.6094 124.041 21.6094 123.6C21.6094 123.131 21.709 122.732 21.9082 122.404C22.1074 122.072 22.3984 121.82 22.7812 121.648C23.1641 121.473 23.627 121.385 24.1699 121.385C24.2871 121.385 24.4141 121.393 24.5508 121.408C24.6914 121.42 24.8203 121.436 24.9375 121.455C25.0586 121.471 25.1504 121.488 25.2129 121.508H27.457V122.275L26.3555 122.48C26.4609 122.629 26.5449 122.799 26.6074 122.99C26.6699 123.178 26.7012 123.383 26.7012 123.605C26.7012 124.277 26.4688 124.807 26.0039 125.193C25.543 125.576 24.9062 125.768 24.0938 125.768C23.8984 125.76 23.709 125.744 23.5254 125.721C23.3848 125.807 23.2773 125.902 23.2031 126.008C23.1289 126.109 23.0918 126.225 23.0918 126.354C23.0918 126.459 23.1289 126.545 23.2031 126.611C23.2773 126.674 23.3867 126.721 23.5312 126.752C23.6797 126.783 23.8594 126.799 24.0703 126.799H25.1895C25.9004 126.799 26.4434 126.949 26.8184 127.25C27.1934 127.551 27.3809 127.992 27.3809 128.574C27.3809 129.312 27.0762 129.881 26.4668 130.279C25.8574 130.682 24.9805 130.883 23.8359 130.883ZM23.8887 129.916C24.3691 129.916 24.7734 129.869 25.1016 129.775C25.4297 129.682 25.6777 129.547 25.8457 129.371C26.0137 129.199 26.0977 128.994 26.0977 128.756C26.0977 128.545 26.0449 128.383 25.9395 128.27C25.834 128.156 25.6758 128.078 25.4648 128.035C25.2539 127.992 24.9922 127.971 24.6797 127.971H23.6602C23.4062 127.971 23.1816 128.01 22.9863 128.088C22.791 128.17 22.6387 128.287 22.5293 128.439C22.4238 128.592 22.3711 128.775 22.3711 128.99C22.3711 129.287 22.502 129.516 22.7637 129.676C23.0293 129.836 23.4043 129.916 23.8887 129.916ZM24.1582 124.865C24.5605 124.865 24.8594 124.756 25.0547 124.537C25.25 124.314 25.3477 124.002 25.3477 123.6C25.3477 123.162 25.2461 122.834 25.043 122.615C24.8438 122.396 24.5469 122.287 24.1523 122.287C23.7656 122.287 23.4707 122.398 23.2676 122.621C23.0684 122.844 22.9688 123.174 22.9688 123.611C22.9688 124.006 23.0684 124.314 23.2676 124.537C23.4707 124.756 23.7676 124.865 24.1582 124.865ZM30.0176 118.883V121.174C30.0176 121.412 30.0098 121.645 29.9941 121.871C29.9824 122.098 29.9688 122.273 29.9531 122.398H30.0293C30.166 122.172 30.334 121.986 30.5332 121.842C30.7324 121.693 30.9551 121.582 31.2012 121.508C31.4512 121.434 31.7168 121.396 31.998 121.396C32.4941 121.396 32.916 121.48 33.2637 121.648C33.6113 121.812 33.877 122.068 34.0605 122.416C34.248 122.764 34.3418 123.215 34.3418 123.77V128H32.9648V124.027C32.9648 123.523 32.8613 123.146 32.6543 122.896C32.4473 122.643 32.127 122.516 31.6934 122.516C31.2754 122.516 30.9434 122.604 30.6973 122.779C30.4551 122.951 30.2812 123.207 30.1758 123.547C30.0703 123.883 30.0176 124.293 30.0176 124.777V128H28.6406V118.883H30.0176ZM38.6836 127.004C38.8633 127.004 39.041 126.988 39.2168 126.957C39.3926 126.922 39.5527 126.881 39.6973 126.834V127.877C39.5449 127.943 39.3477 128 39.1055 128.047C38.8633 128.094 38.6113 128.117 38.3496 128.117C37.9824 128.117 37.6523 128.057 37.3594 127.936C37.0664 127.811 36.834 127.598 36.6621 127.297C36.4902 126.996 36.4043 126.58 36.4043 126.049V122.562H35.5195V121.947L36.4688 121.461L36.9199 120.072H37.7871V121.514H39.6445V122.562H37.7871V126.031C37.7871 126.359 37.8691 126.604 38.0332 126.764C38.1973 126.924 38.4141 127.004 38.6836 127.004ZM45.375 126.148C45.375 126.574 45.2715 126.934 45.0645 127.227C44.8574 127.52 44.5547 127.742 44.1562 127.895C43.7617 128.043 43.2773 128.117 42.7031 128.117C42.25 128.117 41.8594 128.084 41.5312 128.018C41.207 127.955 40.9004 127.857 40.6113 127.725V126.535C40.9199 126.68 41.2656 126.805 41.6484 126.91C42.0352 127.016 42.4004 127.068 42.7441 127.068C43.1973 127.068 43.5234 126.998 43.7227 126.857C43.9219 126.713 44.0215 126.521 44.0215 126.283C44.0215 126.143 43.9805 126.018 43.8984 125.908C43.8203 125.795 43.6719 125.68 43.4531 125.562C43.2383 125.441 42.9219 125.297 42.5039 125.129C42.0938 124.965 41.748 124.801 41.4668 124.637C41.1855 124.473 40.9727 124.275 40.8281 124.045C40.6836 123.811 40.6113 123.512 40.6113 123.148C40.6113 122.574 40.8379 122.139 41.291 121.842C41.748 121.541 42.3516 121.391 43.1016 121.391C43.5 121.391 43.875 121.432 44.2266 121.514C44.582 121.592 44.9297 121.707 45.2695 121.859L44.8359 122.896C44.543 122.768 44.248 122.662 43.9512 122.58C43.6582 122.494 43.3594 122.451 43.0547 122.451C42.6992 122.451 42.4277 122.506 42.2402 122.615C42.0566 122.725 41.9648 122.881 41.9648 123.084C41.9648 123.236 42.0098 123.365 42.0996 123.471C42.1895 123.576 42.3438 123.682 42.5625 123.787C42.7852 123.893 43.0938 124.023 43.4883 124.18C43.875 124.328 44.209 124.484 44.4902 124.648C44.7754 124.809 44.9941 125.006 45.1465 125.24C45.2988 125.475 45.375 125.777 45.375 126.148Z" fill="#254BEC"/>
<path d="M128.677 11.3987H127.323V88.3076H128.677V11.3987Z" fill="url(#paint0_linear_10_6136)"/>
<path d="M131.608 -13H124.392V4.74097H131.608V-13Z" fill="#3C3B39"/>
<path d="M128.037 13.6185H127.963C127.963 13.7665 124.392 11.87 124.392 9.71795V4.74133H131.608V9.71795C131.608 11.87 128.037 13.6185 128.037 13.6185Z" fill="#232220"/>
<path d="M131.608 87.904H124.392V99.404H131.608V87.904Z" fill="#3C3B39"/>
<path d="M127.963 79.0275H128.037C128.037 78.893 131.608 80.776 131.608 82.9415V87.9047H124.392V82.9684C124.392 80.776 127.963 79.0275 127.963 79.0275Z" fill="#232220"/>
<path d="M162 123.723C162 126.077 146.779 128 128 128C109.221 128 94 126.077 94 123.723C94 121.369 109.221 96.8222 128 96.8222C146.779 96.8222 162 121.369 162 123.723Z" fill="url(#paint1_linear_10_6136)"/>
<path d="M162 123.722C162 126.076 146.779 128 128 128C109.221 128 94 126.076 94 123.722C94 121.369 109.221 119.445 128 119.445C146.779 119.445 162 121.369 162 123.722Z" fill="#797877"/>
<path d="M160.252 124.22C160.252 126.036 145.819 127.502 128 127.502C110.181 127.502 95.7488 126.036 95.7488 124.22C95.7488 122.404 110.194 120.925 128 120.925C145.807 120.925 160.252 122.404 160.252 124.22Z" fill="#FFFDF7"/>
<path d="M128 120.925C125.082 120.925 122.262 120.925 119.577 121.046C121.104 123.158 124.293 124.624 128 124.624C131.707 124.624 134.896 123.158 136.435 121.046C133.788 120.965 130.919 120.925 128 120.925Z" fill="url(#paint2_radial_10_6136)"/>
</g>
<defs>
<linearGradient id="paint0_linear_10_6136" x1="127.323" y1="49.8531" x2="128.677" y2="49.8531" gradientUnits="userSpaceOnUse">
<stop stop-color="#807F7E"/>
<stop offset="1" stop-color="#86857D"/>
</linearGradient>
<linearGradient id="paint1_linear_10_6136" x1="147.013" y1="104.906" x2="112.8" y2="128.459" gradientUnits="userSpaceOnUse">
<stop stop-color="#676765"/>
<stop offset="0.19" stop-color="#51514F"/>
<stop offset="0.39" stop-color="#41413F"/>
<stop offset="0.54" stop-color="#3C3B39"/>
<stop offset="0.56" stop-color="#3A3937"/>
<stop offset="0.8" stop-color="#2B2A28"/>
<stop offset="1" stop-color="#262523"/>
</linearGradient>
<radialGradient id="paint2_radial_10_6136" cx="0" cy="0" r="1" gradientUnits="userSpaceOnUse" gradientTransform="translate(127.988 119.701) scale(6.8468 7.47838)">
<stop offset="0.49" stop-color="white"/>
<stop offset="0.6" stop-color="#FFFFFA"/>
<stop offset="0.74" stop-color="#FFFFEA"/>
<stop offset="0.9" stop-color="#FFFFD0"/>
<stop offset="1" stop-color="#FFFFBC"/>
</radialGradient>
<clipPath id="clip0_10_6136">
<rect width="170" height="194.854" rx="16" fill="white"/>
</clipPath>
</defs>
</svg>
